<svg id="Purple_Yellow_Minimalist_Online_Survey_Instagram_Post_" data-name="Purple Yellow Minimalist Online Survey Instagram Post " xmlns="http://www.w3.org/2000/svg" xmlns:xlink="http://www.w3.org/1999/xlink" width="624.273" height="525.515" viewBox="0 0 624.273 525.515">
  <defs>
    <clipPath id="clip-path">
      <path id="Path_11699" data-name="Path 11699" d="M386,56.793h38.725V95.719H386Zm0,0" transform="translate(-386 -56.793)"/>
    </clipPath>
    <clipPath id="clip-path-2">
      <path id="Path_11743" data-name="Path 11743" d="M100.488,583.035H668.307v16.046H100.488Zm0,0" transform="translate(-100.488 -583.035)"/>
    </clipPath>
  </defs>
  <path id="Path_11676" data-name="Path 11676" d="M590.175,355.433c-1.108-8.456-3.566-31.407-8.679-48.164s-12.71-35.473-24.313-51.655a112.191,112.191,0,0,0-16.534-18.84c-.272,8.176-3.569,11.916-3.569,11.916s-2.962,5.15-1.846,2.488,2.454-6.266,2.319-13.111a23.247,23.247,0,0,0-.556-4.39,130.406,130.406,0,0,0-15.906-10.751C506.451,214.3,505.5,219.4,505.5,219.4s-2.7,2.1,1.978,4.636,5.794,5.507,16.867,19.714,19.34,42.847,24.8,59.3,19.453,51.8,19.453,51.8,4.693,16.258,15.642,13.441c6.928-1.781,7.045-4.413,5.94-12.862" transform="translate(-113.372 -61.928)" fill="#346e00"/>
  <path id="Path_11677" data-name="Path 11677" d="M518.621,229.762a153.8,153.8,0,0,1,13.353,15.913c4.107,5.582,7.972,11.353,11.53,17.3s6.947,12,10.1,18.179c3.135,6.182,6.149,12.431,8.932,18.784S568,312.7,570.449,319.181c.636,1.611,1.252,3.238,1.835,4.863l1.792,4.89c1.131,3.275,2.3,6.539,3.37,9.844q6.546,19.753,11.205,40.076a333.289,333.289,0,0,1,6.86,41.092c.7,6.917,1.028,13.875,1.24,20.807.234,6.928.4,13.861.534,20.789.522,27.724.726,55.433.828,83.15l-3.248,0c.174-27.7.234-55.415-.012-83.108q-.1-10.386-.329-20.762c-.147-6.925-.408-13.819-1.032-20.687a330.308,330.308,0,0,0-6.426-40.922q-4.429-20.262-10.781-40.056c-1.025-3.305-2.168-6.573-3.264-9.848l-1.736-4.894q-.857-2.45-1.781-4.875c-2.39-6.5-5-12.9-7.715-19.272s-5.661-12.631-8.729-18.837q-4.634-9.287-9.908-18.247c-3.494-5.971-7.295-11.765-11.338-17.385a154.609,154.609,0,0,0-13.195-16.034" transform="translate(-113.815 -62.306)" fill="#7ca417"/>
  <path id="Path_11678" data-name="Path 11678" d="M694.7,271.531c-2.05,1.589-10.354,5.525-22.366,7.185-10.184,1.411-20.591-.424-30.628,5.688a29.226,29.226,0,0,0,2.972,7.836c3.5,5.891,6.531,8.247,8.887,9.919s-2.878-1.135-2.878-1.135-4.364-1.241-9.277-10.113a19.955,19.955,0,0,1-1.989-4.968,35.96,35.96,0,0,0-3.093,2.586c-11.655,11.006-19.541,17.945-17.843,30.859S614.1,335.242,619.606,345s21.635,7.325,27.629-3.755c3.94-7.284,6.542-25.637,16.25-33.208,18.655-14.563,27.414-11.5,32.179-27.179,2.633-8.683,1.1-10.907-.96-9.322" transform="translate(-116.958 -63.622)" fill="#346e00"/>
  <path id="Path_11679" data-name="Path 11679" d="M583.37,374.286c1.206-15.361-4.224-23.217-16.28-35.715-7.216-7.483-14.972-9.368-22.623-9.976,4.44,8.7,2.2,14.632,2.2,14.632s-.5,5.922-.613,3.032-.439-6.712-3.472-12.858a26.107,26.107,0,0,0-3.448-5.086c-3.3-.113-6.551-.173-9.7-.544-12.052-1.43-20.489-4.916-22.6-6.7s-3.286.839-.605,11.073c6.769,25.833,24.548,27.1,35.091,34.608S552,391.038,556.206,399.483c6.4,12.839,21.893,14.53,27.014,2.742s-1.051-12.582.151-27.939" transform="translate(-113.371 -65.2)" fill="#7ca417"/>
  <path id="Path_11680" data-name="Path 11680" d="M580.328,441.207c-5.2-11.27-11.07-21.4-28.9-32.073a56.473,56.473,0,0,0-19.8-7.371c4.613,7.6,3.786,11.561,3.786,11.561s.053,5.941-.333,3.079-1.059-6.645-4.651-12.48a21.36,21.36,0,0,0-1.959-2.655c-8.581-1.188-15.845-1.052-22.414-5.064-3.388-2.072-6.187-3.74-4.493-.657,18.387,33.46,35.972,25.053,62.3,53.973a42.992,42.992,0,0,0,5.827,5.422c2.908,2.174,9.734,1.839,11.24-1.467,1.286-2.844,1.857-6.94-.6-12.268" transform="translate(-113.255 -67.536)" fill="#9fbc50"/>
  <path id="Path_11681" data-name="Path 11681" d="M621.055,332.332c2.355-13.288-.22-36.009-1.445-50.282-1-11.651-4.8-17.952-8.357-24.9a13.61,13.61,0,0,1-5,1.138s-5.765,1.444-3.075.4a26.51,26.51,0,0,0,6.936-3.812c-.408-.843-.809-1.7-1.2-2.591-4.047-9.25-5.491-15.028-8.09-19.071,0,0-5.5-9.249-8.384-9.541s-2.315,2.314-4.338,1.157-6.935,1.444-8.38,5.491a43.225,43.225,0,0,0-1.754,11.016A21.83,21.83,0,0,0,580.2,244.3a27.193,27.193,0,0,0,10.038,7.379c2.472,1.078-2.856-.492-2.856-.492s-3.842-.276-9.571-6.516c-.069,2.088-.11,4.338-.11,6.747,0,9.828-3.369,19.151-4.7,32.656-.915,9.363,3.694,25.182,4.7,31.5,2.813,17.539-5.067,31.419,5.348,53.75,6.274,13.444,18.058,3.033,18.058,3.033s2.311,2.458,7.223,1.3,7.227-9.247,8.959-16.761,2.847-19.434,3.759-24.562" transform="translate(-115.544 -62.111)" fill="#7ca417"/>
  <path id="Path_11682" data-name="Path 11682" d="M647.466,349.808c5.188-9.163,10.887-17.8,22.414-27.588s18.489-17.045,27.739-20.8c8.91-3.624,15.68-6.735,24.461-8.086,8.554-1.32,13.7-.828,14.873-2.583.835-1.259-.409-1.83-6.009-1.543-8.569.439-10.491-1.807-22.033-.423s-18.867-.873-26.782,3.789-19.238,7.719-27.115,14.06-14.34,10.7-17.006,15.131c-5.275,8.8-9.431,14.507-11.266,21.352-3.842,14.352-1.8,14.98-2.246,20.031a8.168,8.168,0,0,0,5.858,8.612c8.259,2.639,9.938-9.284,17.112-21.949" transform="translate(-117.184 -64.172)" fill="#9fbc50"/>
  <path id="Path_11683" data-name="Path 11683" d="M589.563,232.688c.85,3.244,1.444,6.549,2.046,9.847s1.135,6.608,1.645,9.923c1.018,6.626,1.9,13.278,2.689,19.938s1.46,13.335,2.057,20.017c.575,6.686,1.1,13.372,1.5,20.065.836,13.392,1.441,26.794,1.952,40.2s.919,26.808,1.236,40.219c.3,13.413.563,26.824.514,40.257.008,3.351-.09,6.739-.169,10.074l-.19,10.048-.284,20.112-.847,80.452-3.244-.049,1.66-80.448.484-20.116.295-10.059c.106-3.37.238-6.683.273-10.038.181-13.387.048-26.8-.118-40.2s-.453-26.808-.824-40.211-.847-26.8-1.551-40.189c-.332-6.694-.786-13.38-1.293-20.062-.536-6.679-1.137-13.357-1.853-20.025s-1.539-13.316-2.492-19.952q-.709-4.981-1.539-9.939c-.568-3.3-1.131-6.607-1.947-9.862" transform="translate(-116.076 -62.399)" fill="#346e00"/>
  <path id="Path_11684" data-name="Path 11684" d="M508.926,329.125a1.93,1.93,0,0,0,.707.794,9.749,9.749,0,0,0,.916.571c.631.352,1.274.673,1.921.98l3.93,1.819c2.617,1.21,5.21,2.47,7.752,3.842a77.459,77.459,0,0,1,14.307,9.726,59.432,59.432,0,0,1,6.13,6.138c.945,1.093,1.841,2.224,2.768,3.332l2.688,3.4a154.523,154.523,0,0,1,9.8,14.292,143.323,143.323,0,0,1,14.113,31.631c3.222,11.092,6.656,22.074,9.908,33.158s6.289,22.233,8.747,33.537c1.214,5.661,2.254,11.364,3.055,17.112a162.391,162.391,0,0,1,1.279,17.362c.336,11.554.4,23.095.367,34.637s-.174,23.08-.416,34.63l-3.241-.095q.556-17.266.817-34.557c.167-11.523.242-23.046.042-34.557a161.486,161.486,0,0,0-1.059-17.136c-.726-5.68-1.686-11.341-2.829-16.976-2.31-11.258-5.207-22.41-8.319-33.506S575.874,417.1,572.792,406a141.867,141.867,0,0,0-13.649-31.57,152.416,152.416,0,0,0-9.586-14.337l-2.636-3.418c-.912-1.119-1.793-2.258-2.719-3.359a60.1,60.1,0,0,0-6.009-6.16,77.761,77.761,0,0,0-14.14-9.852c-2.515-1.4-5.094-2.689-7.7-3.926l-3.9-1.864c-.647-.318-1.293-.647-1.917-1.006-.314-.178-.617-.375-.911-.583a1.9,1.9,0,0,1-.7-.806" transform="translate(-113.506 -65.473)" fill="#346e00"/>
  <path id="Path_11685" data-name="Path 11685" d="M694.015,275.168a58.613,58.613,0,0,1-13.494,12.518c-5.113,3.456-10.668,6.179-15.867,9.446a51.654,51.654,0,0,0-7.364,5.477c-1.184.976-2.19,2.137-3.268,3.222-.51.56-.976,1.176-1.464,1.762s-.983,1.165-1.417,1.8a173.994,173.994,0,0,0-10.173,15.355c-1.593,2.632-3.049,5.332-4.523,8.029l-2.1,4.1c-.7,1.365-1.339,2.765-2.012,4.145q-3.948,8.327-7.215,16.945a275.44,275.44,0,0,0-10.589,35.251,305.868,305.868,0,0,0-6.069,36.3c-.643,6.1-1.12,12.219-1.339,18.337-.121,3.055-.121,6.138-.151,9.213l-.083,9.231-.662,73.846-3.244-.034,1.475-73.865.185-9.231c.065-3.079.1-6.152.254-9.247.287-6.182.835-12.344,1.547-18.478a308.09,308.09,0,0,1,6.512-36.44,276.372,276.372,0,0,1,11.032-35.318q3.392-8.616,7.435-16.946c.7-1.38,1.346-2.776,2.068-4.141l2.164-4.088c1.5-2.692,3-5.4,4.621-8.017a175.956,175.956,0,0,1,10.385-15.3c.442-.628.96-1.21,1.452-1.808s.979-1.2,1.508-1.766a44.6,44.6,0,0,1,3.336-3.23,52.63,52.63,0,0,1,7.491-5.442c5.26-3.222,10.83-5.877,15.966-9.269a58.5,58.5,0,0,0,13.607-12.347" transform="translate(-116.503 -63.753)" fill="#9fbc50"/>
  <path id="Path_11686" data-name="Path 11686" d="M505.137,397.457a79.328,79.328,0,0,0,18.6,15.589c6.92,4.262,14.234,7.8,21.468,11.53,3.631,1.845,7.2,3.819,10.725,5.876l2.6,1.626c.87.534,1.736,1.078,2.565,1.675l2.522,1.751c.828.593,1.619,1.248,2.436,1.871,1.653,1.214,3.139,2.636,4.682,3.987l.574.51.537.552,1.077,1.1c.708.748,1.464,1.444,2.126,2.232l1.985,2.359.991,1.184.893,1.252,1.788,2.518a12.143,12.143,0,0,1,.84,1.293l.79,1.323a84.154,84.154,0,0,1,9.235,22.759c1.089,3.967,1.748,8.014,2.474,12.045.488,4.069,1.107,8.126,1.316,12.211,1.229,16.337.5,32.724-1.089,48.962l-3.226-.34c1.845-16.088,2.833-32.319,1.891-48.456-.139-4.043-.684-8.04-1.1-12.052-.649-3.983-1.224-7.98-2.234-11.883a82.315,82.315,0,0,0-8.66-22.414l-.753-1.309a11.524,11.524,0,0,0-.794-1.278l-1.706-2.481-.855-1.244-.949-1.176-1.9-2.34c-.639-.775-1.369-1.471-2.05-2.213l-1.037-1.1-.518-.553-.556-.514c-1.494-1.35-2.931-2.768-4.537-3.993-.787-.625-1.559-1.274-2.365-1.879l-2.462-1.771c-.809-.605-1.66-1.157-2.511-1.7l-2.548-1.649c-3.461-2.1-6.977-4.126-10.574-6.025-7.159-3.839-14.439-7.526-21.307-11.913a79.286,79.286,0,0,1-18.387-15.929" transform="translate(-113.385 -67.651)" fill="#346e00"/>
  <path id="Path_11687" data-name="Path 11687" d="M725.591,291.227a118.063,118.063,0,0,0-19.62,3.963c-1.592.511-3.2.961-4.773,1.521l-4.681,1.774c-3.052,1.335-6.127,2.639-9.042,4.269a95.979,95.979,0,0,0-16.594,11.088c-1.328,1.01-2.538,2.163-3.77,3.279-1.222,1.135-2.5,2.2-3.634,3.43l-3.483,3.581c-1.111,1.24-2.186,2.518-3.279,3.77-.534.636-1.1,1.252-1.619,1.9l-1.52,1.982c-1.006,1.331-2.042,2.629-3.018,3.978l-2.813,4.126c-.462.7-.957,1.365-1.392,2.077l-1.293,2.137-2.591,4.269-3.554,6.6c-.4.726-.73,1.5-1.1,2.239l-2.164,4.5a231.751,231.751,0,0,0-13.342,37.636,349.619,349.619,0,0,0-7.983,39.171c-.246,1.649-.522,3.293-.745,4.946l-.628,4.959c-.4,3.312-.885,6.614-1.18,9.934l-1,9.954-.76,9.972c-.117,1.668-.279,3.324-.355,4.989l-.269,5c-.162,3.327-.389,6.66-.495,9.991-.2,6.667-.48,13.331-.5,20-.034,3.336-.095,6.671-.1,10.007s.022,6.667.086,9.995.186,6.652.386,9.954c.11,1.641.234,3.29.427,4.9.087.813.2,1.607.349,2.368.075.378.151.756.246,1.078a3.988,3.988,0,0,0,.143.423c.016.045.023.045.03.073a.69.69,0,0,0-.09-.121c-.012,0-.027-.031-.178-.16-.212-.076.034-.173-.95-.294l.057,3.244c-1.028-.132-.824-.268-1.077-.37a1.3,1.3,0,0,1-.284-.281,2.468,2.468,0,0,1-.269-.37,4.7,4.7,0,0,1-.238-.492c-.086-.254-.2-.545-.253-.764-.133-.484-.22-.927-.3-1.373-.155-.881-.272-1.74-.359-2.595-.193-1.706-.3-3.392-.4-5.079-.17-3.377-.25-6.735-.284-10.09s-.023-6.705.012-10.056.136-6.7.2-10.041c.082-6.7.438-13.387.7-20.073.141-3.347.4-6.686.6-10.026l.318-5.014c.1-1.672.28-3.336.413-5.007l.866-10,1.1-9.988c.325-3.331.851-6.644,1.283-9.968l.681-4.973c.246-1.656.536-3.305.8-4.958a352.048,352.048,0,0,1,8.422-39.289A232.261,232.261,0,0,1,634.55,361.2l2.22-4.515c.378-.745.722-1.513,1.131-2.243l1.217-2.2,2.436-4.4,2.647-4.277,1.324-2.137c.443-.711.949-1.381,1.418-2.073l2.877-4.129c.991-1.351,2.053-2.648,3.079-3.975l1.55-1.982c.537-.643,1.1-1.263,1.653-1.895,1.112-1.255,2.205-2.526,3.336-3.758l3.54-3.578c1.153-1.218,2.454-2.28,3.694-3.407s2.477-2.258,3.824-3.257a96.214,96.214,0,0,1,16.791-10.981c2.942-1.607,6.044-2.89,9.122-4.194l4.716-1.728c1.573-.545,3.192-.98,4.792-1.475a117.9,117.9,0,0,1,19.676-3.77" transform="translate(-116.578 -64.265)" fill="#346e00"/>
  <path id="Path_11688" data-name="Path 11688" d="M702.848,313.29c-1.252-2.939-2.458-3.7-7.374-2.595s-9.859,9.31-18.406,16.031c-.22.177-.45.359-.673.548a19.424,19.424,0,0,0-.386,3.112,25.828,25.828,0,0,0,1.9,11.678c.833,2.057-4.049-4.178-5.021-11.711-8.336,7.749-19.2,20.493-26.866,29.895-9.031,11.076-12.986,19.665-17.661,31.237s-1.082,13.07-1.071,22.158,2.613,13.165,4.217,14.314c0,0,3.955,4.239,12.544,1.111,5.718-2.083,8.573-5.335,13.988-10.4s13.584-19.68,17.139-28.257c2.046-4.946,3.339-8.622,4.754-12.264-8.521,1.71-11.988-.314-11.988-.314s-5.975-1.959-2.976-1.377,7.031,1.191,14.1-.428c.632-.147,1.283-.332,1.922-.544.756-1.831,1.585-3.717,2.605-5.82,3.581-7.4,15.68-31.389,17.9-37.765s2.606-15.671,1.35-18.606" transform="translate(-117.236 -64.87)" fill="#346e00"/>
  <path id="Path_11689" data-name="Path 11689" d="M698.621,314.523A123.831,123.831,0,0,1,691.738,329q-3.863,7.039-8.275,13.746c-2.93,4.489-6.077,8.807-8.959,13.3-2.9,4.485-5.706,9.031-8.459,13.611-5.491,9.166-10.774,18.462-16.02,27.777-2.624,4.652-5.257,9.314-7.945,13.943l-1.955,3.479-.98,1.744-.915,1.774-1.827,3.551c-.605,1.184-1.142,2.4-1.717,3.6-2.306,4.8-4.3,9.741-6.217,14.7-1.834,5-3.581,10.036-5.059,15.146-1.551,5.09-2.833,10.263-4.051,15.444-1.157,5.2-2.216,10.414-3.078,15.667a303.184,303.184,0,0,0-3.544,31.722q-.459,7.975-.5,15.951c-.012,5.306.083,10.661.461,15.888l-3.232.253c-.325-5.442-.353-10.785-.273-16.171s.333-10.74.711-16.1a304.241,304.241,0,0,1,3.974-31.959c.938-5.283,2.073-10.536,3.3-15.759,1.3-5.214,2.658-10.407,4.289-15.528,1.562-5.136,3.381-10.191,5.291-15.206,2-4.984,4.073-9.942,6.463-14.748.594-1.206,1.149-2.424,1.781-3.616l1.888-3.554.941-1.782,1.01-1.74,2.012-3.487c2.746-4.583,5.424-9.2,8.112-13.826,5.37-9.247,10.77-18.485,16.386-27.592,2.813-4.549,5.676-9.068,8.641-13.528,2.946-4.47,6.153-8.759,9.126-13.191s5.808-8.966,8.444-13.622a122.73,122.73,0,0,0,7.057-14.379" transform="translate(-116.7 -65.007)" fill="#346e00"/>
  <path id="Path_11690" data-name="Path 11690" d="M733.668,403.913c-6.9,1.839-10.866-2.182-23.179.746-11.443,2.711-21.2,2.484-28.26,5.43-.4.469-.783.946-1.127,1.43-3.968,5.585-4.894,9.314-5.472,12.143-.432,2.151-1.037-4.482,1.4-11.342-6.433,2.087-14.707,2.367-31.71,9.416-20.611,8.54-31.668,33.212-19.343,44.039,4.178,3.672,9.174-.855,9.174-.855,9.36-7.787,26.189-31.494,87.891-53.406,11.534-4.1,14.639-5.14,17.264-7.129s.265-2.318-6.633-.473" transform="translate(-117.072 -67.818)" fill="#9fbc50"/>
  <path id="Path_11691" data-name="Path 11691" d="M731.674,408.027a223.521,223.521,0,0,0-28.132,7.67q-6.9,2.366-13.641,5.136c-4.493,1.849-8.9,3.888-13.259,6.032a152.523,152.523,0,0,0-24.694,15.29,99.707,99.707,0,0,0-20.3,20.524c-.7.987-1.343,2-2.008,3.006l-1,1.5c-.314.51-.594,1.044-.9,1.565l-1.774,3.135c-.53,1.079-1.029,2.171-1.547,3.257l-.768,1.629c-.231.552-.454,1.116-.677,1.672-.442,1.127-.926,2.228-1.313,3.369-.4,1.139-.828,2.269-1.21,3.416l-1.1,3.448a164.855,164.855,0,0,0-5.711,28.379,238.317,238.317,0,0,0-1.512,28.967,245.976,245.976,0,0,0,1.815,28.9l-3.219.435a249.241,249.241,0,0,1-1.433-29.339,240.245,240.245,0,0,1,1.936-29.263,167.7,167.7,0,0,1,6.183-28.688l1.169-3.487c.4-1.157.851-2.3,1.274-3.448s.919-2.277,1.38-3.408c.238-.566.469-1.138.718-1.7l.809-1.664c.544-1.1,1.07-2.212,1.633-3.309l1.857-3.192c.318-.526.609-1.067.942-1.585l1.04-1.52c.7-1.01,1.373-2.042,2.095-3.033a101.271,101.271,0,0,1,20.88-20.547,153.442,153.442,0,0,1,25.073-15.044c4.4-2.091,8.854-4.08,13.383-5.865s9.114-3.449,13.744-4.961a224.478,224.478,0,0,1,28.26-7.284" transform="translate(-116.705 -67.988)" fill="#346e00"/>
  <path id="Path_11692" data-name="Path 11692" d="M573.721,517.137a1.466,1.466,0,0,0-1.471,1.448c-.016.885-.022,1.778-.022,2.67,0,23.783,4.307,45.143,11.144,59.808a1.486,1.486,0,0,0,1.339.843H623.06a1.477,1.477,0,0,0,1.339-.843c6.842-14.665,11.149-36.025,11.149-59.808,0-.893-.012-1.785-.02-2.67a1.474,1.474,0,0,0-1.478-1.448h-60.33" transform="translate(-115.524 -71.465)" fill="#eaa288"/>
  <path id="Path_11693" data-name="Path 11693" d="M635.406,533.535H579.035l55.554,9.356q.521-4.572.817-9.356" transform="translate(-115.74 -71.988)" fill="#512618"/>
  <path id="Path_11694" data-name="Path 11694" d="M560.523,568.738H240.178a9.536,9.536,0,0,1-9.533-9.538V108.155a9.53,9.53,0,0,1,9.533-9.534H560.523a9.53,9.53,0,0,1,9.533,9.534V559.2a9.536,9.536,0,0,1-9.533,9.538" transform="translate(-104.636 -58.126)" fill="#023047"/>
  <path id="Path_11695" data-name="Path 11695" d="M557.271,554.875H244.3V112.3H557.271V554.875" transform="translate(-105.072 -58.562)" fill="#fff"/>
  <path id="Path_11696" data-name="Path 11696" d="M468.985,122.756H338.6V101.435a24.073,24.073,0,0,1,24.074-24.071h82.23a24.076,24.076,0,0,1,24.078,24.071v21.321" transform="translate(-108.077 -57.449)" fill="#e69601"/>
  <path id="Path_11697" data-name="Path 11697" d="M459.319,77.363H348.264a9.662,9.662,0,0,0-9.662,9.662v23.851H468.985V87.026a9.666,9.666,0,0,0-9.666-9.662" transform="translate(-108.077 -57.449)" fill="#fccc44"/>
  <g id="Group_12402" data-name="Group 12402" transform="translate(276.412 0)" clip-path="url(#clip-path)">
    <path id="Path_11698" data-name="Path 11698" d="M424.443,76.05a19.136,19.136,0,1,1-19.132-19.132A19.135,19.135,0,0,1,424.443,76.05" transform="translate(-386.005 -56.797)" fill="#fccc44"/>
  </g>
  <path id="Path_11700" data-name="Path 11700" d="M415.98,76.338A10.383,10.383,0,1,1,405.6,65.957,10.384,10.384,0,0,1,415.98,76.338" transform="translate(-109.882 -57.085)" fill="#fff"/>
  <path id="Path_11701" data-name="Path 11701" d="M494.523,343.208a3.2,3.2,0,1,1-3.2-3.2,3.2,3.2,0,0,1,3.2,3.2" transform="translate(-112.843 -65.82)" fill="#c6e4f2"/>
  <path id="Path_11702" data-name="Path 11702" d="M508.23,343.208a3.2,3.2,0,1,1-3.2-3.2,3.2,3.2,0,0,1,3.2,3.2" transform="translate(-113.28 -65.82)" fill="#c6e4f2"/>
  <path id="Path_11703" data-name="Path 11703" d="M521.941,343.208a3.2,3.2,0,1,1-3.2-3.2,3.2,3.2,0,0,1,3.2,3.2" transform="translate(-113.717 -65.82)" fill="#c6e4f2"/>
  <path id="Path_11704" data-name="Path 11704" d="M516.77,330.686h-155.4a3.216,3.216,0,0,1,0-6.432h155.4a3.216,3.216,0,0,1,0,6.432" transform="translate(-108.701 -65.318)" fill="#c6e4f2"/>
  <path id="Path_11705" data-name="Path 11705" d="M516.77,314.491h-155.4a3.213,3.213,0,0,1,0-6.425h155.4a3.213,3.213,0,1,1,0,6.425" transform="translate(-108.701 -64.802)" fill="#c6e4f2"/>
  <path id="Path_11706" data-name="Path 11706" d="M474.521,346.441H361.374a3.212,3.212,0,0,1,0-6.425H474.521a3.212,3.212,0,1,1,0,6.425" transform="translate(-108.701 -65.82)" fill="#c6e4f2"/>
  <path id="Path_11707" data-name="Path 11707" d="M494.523,510.461a3.2,3.2,0,1,1-3.2-3.2,3.2,3.2,0,0,1,3.2,3.2" transform="translate(-112.843 -71.151)" fill="#c6e4f2"/>
  <path id="Path_11708" data-name="Path 11708" d="M508.23,510.461a3.2,3.2,0,1,1-3.2-3.2,3.2,3.2,0,0,1,3.2,3.2" transform="translate(-113.28 -71.151)" fill="#c6e4f2"/>
  <path id="Path_11709" data-name="Path 11709" d="M521.941,510.461a3.2,3.2,0,1,1-3.2-3.2,3.2,3.2,0,0,1,3.2,3.2" transform="translate(-113.717 -71.151)" fill="#c6e4f2"/>
  <path id="Path_11710" data-name="Path 11710" d="M517.874,466.112H396a3.212,3.212,0,0,1,0-6.424H517.874a3.212,3.212,0,1,1,0,6.424" transform="translate(-109.804 -69.634)" fill="#c6e4f2"/>
  <path id="Path_11711" data-name="Path 11711" d="M516.77,481.976h-155.4a3.213,3.213,0,0,1,0-6.425h155.4a3.213,3.213,0,1,1,0,6.425" transform="translate(-108.701 -70.14)" fill="#c6e4f2"/>
  <path id="Path_11712" data-name="Path 11712" d="M516.77,497.839h-155.4a3.215,3.215,0,0,1,0-6.429h155.4a3.215,3.215,0,1,1,0,6.429" transform="translate(-108.701 -70.645)" fill="#c6e4f2"/>
  <path id="Path_11713" data-name="Path 11713" d="M474.521,513.7H361.374a3.214,3.214,0,0,1,0-6.428H474.521a3.214,3.214,0,0,1,0,6.428" transform="translate(-108.701 -71.151)" fill="#c6e4f2"/>
  <path id="Path_11714" data-name="Path 11714" d="M291.838,286.512h48.024V238.494H291.838Zm50.664,5.279H289.2a2.636,2.636,0,0,1-2.635-2.64v-53.3a2.635,2.635,0,0,1,2.635-2.635h53.3a2.636,2.636,0,0,1,2.639,2.635v53.3a2.637,2.637,0,0,1-2.639,2.64" transform="translate(-106.419 -62.416)" fill="#c6e4f2"/>
  <path id="Path_11715" data-name="Path 11715" d="M292.142,361.362h48.017v-48.02H292.142Zm50.657,5.275H289.5A2.64,2.64,0,0,1,286.859,364V310.7a2.64,2.64,0,0,1,2.644-2.636h53.3a2.637,2.637,0,0,1,2.639,2.636V364a2.637,2.637,0,0,1-2.639,2.639" transform="translate(-106.428 -64.802)" fill="#c6e4f2"/>
  <path id="Path_11716" data-name="Path 11716" d="M292.076,437.53H340.1V389.514H292.076Zm50.656,5.279h-53.3a2.639,2.639,0,0,1-2.64-2.639v-53.3a2.64,2.64,0,0,1,2.64-2.64h53.3a2.638,2.638,0,0,1,2.64,2.64v53.3a2.637,2.637,0,0,1-2.64,2.639" transform="translate(-106.426 -67.229)" fill="#c6e4f2"/>
  <path id="Path_11717" data-name="Path 11717" d="M292.076,512.983H340.1v-48.02H292.076Zm50.656,5.276h-53.3a2.64,2.64,0,0,1-2.64-2.64v-53.3a2.639,2.639,0,0,1,2.64-2.635h53.3a2.636,2.636,0,0,1,2.64,2.635v53.3a2.638,2.638,0,0,1-2.64,2.64" transform="translate(-106.426 -69.634)" fill="#c6e4f2"/>
  <path id="Path_11718" data-name="Path 11718" d="M315.828,278.859a3.3,3.3,0,0,1-2.33-.968L295.878,260.28a3.3,3.3,0,1,1,4.67-4.666L315.828,270.9l15.286-15.282a3.3,3.3,0,1,1,4.666,4.666l-17.615,17.611a3.318,3.318,0,0,1-2.337.968" transform="translate(-106.685 -63.099)" fill="#69a3a2"/>
  <path id="Path_11719" data-name="Path 11719" d="M315.828,350.945a3.289,3.289,0,0,1-2.33-.972l-17.619-17.611a3.3,3.3,0,1,1,4.67-4.663l15.279,15.283L331.113,327.7a3.3,3.3,0,1,1,4.666,4.663l-17.615,17.611a3.306,3.306,0,0,1-2.337.972" transform="translate(-106.685 -65.397)" fill="#69a3a2"/>
  <path id="Path_11720" data-name="Path 11720" d="M315.828,506.242a3.3,3.3,0,0,1-2.33-.964l-17.619-17.615a3.3,3.3,0,0,1,4.67-4.667l15.279,15.286L331.113,483a3.3,3.3,0,0,1,4.666,4.667l-17.615,17.615a3.315,3.315,0,0,1-2.337.964" transform="translate(-106.685 -70.346)" fill="#69a3a2"/>
  <path id="Path_11721" data-name="Path 11721" d="M494.523,268.032a3.2,3.2,0,1,1-3.2-3.2,3.2,3.2,0,0,1,3.2,3.2" transform="translate(-112.843 -63.424)" fill="#c6e4f2"/>
  <path id="Path_11722" data-name="Path 11722" d="M508.23,268.032a3.2,3.2,0,1,1-3.2-3.2,3.195,3.195,0,0,1,3.2,3.2" transform="translate(-113.28 -63.424)" fill="#c6e4f2"/>
  <path id="Path_11723" data-name="Path 11723" d="M521.941,268.032a3.2,3.2,0,1,1-3.2-3.2,3.2,3.2,0,0,1,3.2,3.2" transform="translate(-113.717 -63.424)" fill="#c6e4f2"/>
  <path id="Path_11724" data-name="Path 11724" d="M517.874,239.644H396a3.212,3.212,0,0,1,0-6.425H517.874a3.212,3.212,0,1,1,0,6.425" transform="translate(-109.804 -62.416)" fill="#c6e4f2"/>
  <path id="Path_11725" data-name="Path 11725" d="M516.77,255.507h-155.4a3.215,3.215,0,0,1,0-6.429h155.4a3.215,3.215,0,1,1,0,6.429" transform="translate(-108.701 -62.922)" fill="#c6e4f2"/>
  <path id="Path_11726" data-name="Path 11726" d="M474.521,271.265H361.374a3.215,3.215,0,0,1,0-6.429H474.521a3.215,3.215,0,0,1,0,6.429" transform="translate(-108.701 -63.424)" fill="#c6e4f2"/>
  <path id="Path_11727" data-name="Path 11727" d="M291.838,210.835h48.024V162.818H291.838Zm50.664,5.279H289.2a2.639,2.639,0,0,1-2.635-2.64v-53.3a2.636,2.636,0,0,1,2.635-2.64h53.3a2.637,2.637,0,0,1,2.639,2.64v53.3a2.639,2.639,0,0,1-2.639,2.64" transform="translate(-106.419 -60.004)" fill="#c6e4f2"/>
  <path id="Path_11728" data-name="Path 11728" d="M315.828,203.18a3.283,3.283,0,0,1-2.33-.965L295.878,184.6a3.3,3.3,0,0,1,4.67-4.666l15.279,15.282,15.286-15.282a3.3,3.3,0,0,1,4.666,4.666l-17.615,17.615a3.3,3.3,0,0,1-2.337.965" transform="translate(-106.685 -60.687)" fill="#69a3a2"/>
  <path id="Path_11729" data-name="Path 11729" d="M494.523,192.352a3.2,3.2,0,1,1-3.2-3.2,3.2,3.2,0,0,1,3.2,3.2" transform="translate(-112.843 -61.012)" fill="#c6e4f2"/>
  <path id="Path_11730" data-name="Path 11730" d="M508.23,192.352a3.2,3.2,0,1,1-3.2-3.2,3.2,3.2,0,0,1,3.2,3.2" transform="translate(-113.28 -61.012)" fill="#c6e4f2"/>
  <path id="Path_11731" data-name="Path 11731" d="M521.941,192.352a3.2,3.2,0,1,1-3.2-3.2,3.2,3.2,0,0,1,3.2,3.2" transform="translate(-113.717 -61.012)" fill="#c6e4f2"/>
  <path id="Path_11732" data-name="Path 11732" d="M517.874,163.968H396a3.215,3.215,0,0,1,0-6.429H517.874a3.215,3.215,0,1,1,0,6.429" transform="translate(-109.804 -60.004)" fill="#c6e4f2"/>
  <path id="Path_11733" data-name="Path 11733" d="M516.77,179.831h-155.4a3.215,3.215,0,0,1,0-6.429h155.4a3.215,3.215,0,1,1,0,6.429" transform="translate(-108.701 -60.51)" fill="#c6e4f2"/>
  <path id="Path_11734" data-name="Path 11734" d="M474.521,195.585H361.374a3.213,3.213,0,0,1,0-6.426H474.521a3.213,3.213,0,1,1,0,6.426" transform="translate(-108.701 -61.012)" fill="#c6e4f2"/>
  <path id="Path_11735" data-name="Path 11735" d="M494.523,419.047a3.2,3.2,0,1,1-3.2-3.2,3.2,3.2,0,0,1,3.2,3.2" transform="translate(-112.843 -68.237)" fill="#c6e4f2"/>
  <path id="Path_11736" data-name="Path 11736" d="M508.23,419.047a3.2,3.2,0,1,1-3.2-3.2,3.2,3.2,0,0,1,3.2,3.2" transform="translate(-113.28 -68.237)" fill="#c6e4f2"/>
  <path id="Path_11737" data-name="Path 11737" d="M521.941,419.047a3.2,3.2,0,1,1-3.2-3.2,3.2,3.2,0,0,1,3.2,3.2" transform="translate(-113.717 -68.237)" fill="#c6e4f2"/>
  <path id="Path_11738" data-name="Path 11738" d="M517.874,390.663H396a3.215,3.215,0,0,1,0-6.429H517.874a3.215,3.215,0,1,1,0,6.429" transform="translate(-109.804 -67.229)" fill="#c6e4f2"/>
  <path id="Path_11739" data-name="Path 11739" d="M516.77,406.526h-155.4a3.214,3.214,0,0,1,0-6.428h155.4a3.214,3.214,0,1,1,0,6.428" transform="translate(-108.701 -67.735)" fill="#c6e4f2"/>
  <path id="Path_11740" data-name="Path 11740" d="M474.521,422.284H361.374a3.215,3.215,0,0,1,0-6.429H474.521a3.215,3.215,0,0,1,0,6.429" transform="translate(-108.701 -68.237)" fill="#c6e4f2"/>
  <path id="Path_11741" data-name="Path 11741" d="M320.99,414.222l15.176-15.176a3.276,3.276,0,0,0-4.633-4.633L316.46,409.488l-15.081-15.075a3.276,3.276,0,0,0-4.634,4.633l15.18,15.176-15.18,15.172a3.277,3.277,0,1,0,4.634,4.636l15.081-15.078,15.074,15.078a3.277,3.277,0,1,0,4.633-4.636L320.99,414.222" transform="translate(-106.713 -67.523)" fill="#fb8500"/>
  <g id="Group_12403" data-name="Group 12403" transform="translate(0 509.469)" clip-path="url(#clip-path-2)">
    <path id="Path_11742" data-name="Path 11742" d="M658.4,599.091H107.2c-3.192,0-6.713-3.52-6.713-7.862a7.863,7.863,0,0,1,7.858-7.862h551.2a7.86,7.86,0,0,1,7.858,7.862c0,4.342-3.516,7.862-9.007,7.862" transform="translate(-100.488 -583.046)" fill="#312553"/>
  </g>
  <path id="Path_11744" data-name="Path 11744" d="M214.885,361.145c16.75-1.468,37.368-11.531,38.691-11.905a14.354,14.354,0,0,1,9.481.533c1.906.983,6.092,8.523,4.047,9.692-5.775,3.305-9.734-.453-12.559-.692-3.748-.317-4.512.742-8.725,3.434-3.2,2.047-7.45,4.263-14.586,7.9a80.028,80.028,0,0,1-13.441,5.551c-5.971,1.819-8.985,1.835-10.161.651-2.424-2.428.382-14.564,7.253-15.161" transform="translate(-103.876 -66.096)" fill="#ec7d40"/>
  <path id="Path_11745" data-name="Path 11745" d="M252.818,349.118c1.135-3.018,2.932-2.129,6.176-5.059.791-.716,2.077-1.532,2.325-3.446.039-.337.031-1.751.95-1.531.552.133.7,1.006.8,1.562a5.1,5.1,0,0,1-.034,1.751c-.045,2.988-3.131,5.464-4.134,6.626-5.188,6.027-6.837,2.106-6.085.1" transform="translate(-105.338 -65.789)" fill="#ec7d40"/>
  <path id="Path_11746" data-name="Path 11746" d="M213.328,362.688S208,359.6,196.521,351.566s-18.633-16.678-24.289-18.463.079,27.524,5.146,31.8c7.809,6.592,27.747,12.806,30.712,12.556,12.34-1.037,8.671-13.528,5.238-14.776" transform="translate(-102.7 -65.597)" fill="#c6e4f2"/>
  <path id="Path_11747" data-name="Path 11747" d="M208.117,378.314a15.975,15.975,0,0,0,2.156.072c1.7-.057,4.681-.466,10.906-3.321l.488-.223a.18.18,0,0,0,.049-.287l-.4-.371c-3.688-3.452-4.7-8.944-4.444-12.6l.034-.5a.178.178,0,0,0-.22-.182l-.487.125c-.908.227-1.819.439-3.116.8-4.269,1.2-6.081,2.084-8.294,3.612a7.385,7.385,0,0,0-2.469,9.727c1.089,2.2,3.751,2.927,5.793,3.146" transform="translate(-103.706 -66.486)" fill="#c6e4f2"/>
  <path id="Path_11748" data-name="Path 11748" d="M220.391,561.8a96.96,96.96,0,0,1-4.428-13.951c-4.837,1.157-9.822,2.344-13.962,3.32,3.226,6.1,6.592,12.412,6.819,16.1.371,6.059-1.263,7.836.057,9.871s19.918-5.8,18.152-8.066-3.688-.163-6.638-7.269" transform="translate(-103.723 -72.444)" fill="#ec7d40"/>
  <path id="Path_11749" data-name="Path 11749" d="M178.374,574.37c-1.826-1.482-4.439-3.059-4.806-9.844-.14-2.595-.337-7.39-.212-13.217-4.107.816-9.344,1.853-14.688,2.855,2.254,8.365,4.236,15.845,3.448,22.01-.657,5.174,9.308,5.68,13.312,5.041s5.382-4.87,2.946-6.845" transform="translate(-102.342 -72.554)" fill="#f79556"/>
  <path id="Path_11750" data-name="Path 11750" d="M208.414,565.9c.658.045-.371,1.629,1.127,3.18a5.555,5.555,0,0,0,3.226,1.54,6.3,6.3,0,0,0,3.589-.6,12.11,12.11,0,0,0,4.061-3.672c1.324-1.585,1.8-2.542,2.489-2.444.574.083.816.843,1.229,1.573.708,1.279,1.868,2.073,4.2,3.658.839.57,7.3,5.086,13.943,4.678,3.064-.19,2.735,3.195,2.727,3.278-.068.643-.371,1.8-2.208,3.241a15.115,15.115,0,0,1-7.945,2.809c-1.906.2-3.453.235-12.4-.306-9.651-.59-8.456-.666-8.94-.639-.375.022-2.659-.254-7.213-.8a2.268,2.268,0,0,1-1.615-.772,2.234,2.234,0,0,1-.294-1.456,15.361,15.361,0,0,1,.48-3.079,23.25,23.25,0,0,0,.083-2.93,15.977,15.977,0,0,1,1.24-4.686c.469-1.184,1.716-2.609,2.22-2.575" transform="translate(-103.8 -72.956)" fill="#ffb703"/>
  <path id="Path_11751" data-name="Path 11751" d="M243.419,576.453a12.056,12.056,0,0,1-4.115,2.329,21.2,21.2,0,0,1-4.674.946,22.818,22.818,0,0,1-2.383.113c-.791,0-1.581-.015-2.368-.034-1.573-.049-3.146-.133-4.716-.216s-3.135-.193-4.7-.31-3.131-.234-4.7-.4l-1.172-.133-.591-.075c-.049-.008-.1-.012-.129-.016h-.113c-.125,0-.227-.01-.329-.018-.8-.091-1.573-.208-2.352-.325-1.551-.242-3.1-.492-4.648-.783,1.569.087,3.135.216,4.7.333.783.061,1.573.137,2.337.17.1,0,.19,0,.258,0l.079-.007c.034,0,.068,0,.1,0,.072,0,.117.012.166.016l.579.049,1.172.072,9.4.514c1.565.095,3.131.186,4.7.261a45.876,45.876,0,0,0,4.663.079,24.443,24.443,0,0,0,4.595-.658,13.442,13.442,0,0,0,4.247-1.9" transform="translate(-103.864 -73.356)" fill="#fff"/>
  <path id="Path_11752" data-name="Path 11752" d="M225.133,571.7a5.51,5.51,0,0,1,.291-1.221c.076-.2.155-.394.246-.591s.2-.375.314-.56.223-.375.344-.555a1.6,1.6,0,0,1,.472-.458,2,2,0,0,1,1.335-.3l.061.1a3.9,3.9,0,0,1-.617,1.1c-.215.3-.575.45-.851.714a9.4,9.4,0,0,0-.786.839,9.29,9.29,0,0,0-.7.968l-.109-.038" transform="translate(-104.461 -73.086)" fill="#fff"/>
  <path id="Path_11753" data-name="Path 11753" d="M227.8,573.148a5.636,5.636,0,0,1,.292-1.218,5.708,5.708,0,0,1,.563-1.154c.117-.181.219-.374.344-.556a1.472,1.472,0,0,1,.47-.458,1.988,1.988,0,0,1,1.334-.3l.061.1a3.735,3.735,0,0,1-.617,1.1,1.683,1.683,0,0,1-.4.371,2.934,2.934,0,0,0-.454.34c-.136.125-.272.261-.4.4s-.257.284-.385.436a8.207,8.207,0,0,0-.7.968l-.113-.038" transform="translate(-104.546 -73.132)" fill="#fff"/>
  <path id="Path_11754" data-name="Path 11754" d="M230.461,574.593a5.824,5.824,0,0,1,.3-1.226,5.521,5.521,0,0,1,.56-1.145c.117-.178.219-.375.34-.56a1.539,1.539,0,0,1,.473-.454,1.988,1.988,0,0,1,1.338-.3l.057.106a3.86,3.86,0,0,1-.613,1.1,2.047,2.047,0,0,1-.4.371,2.959,2.959,0,0,0-.454.341c-.135.125-.272.264-.4.4s-.26.284-.385.435a7.937,7.937,0,0,0-.7.968l-.113-.038" transform="translate(-104.631 -73.178)" fill="#fff"/>
  <path id="Path_11755" data-name="Path 11755" d="M233.125,576.034a6.083,6.083,0,0,1,.291-1.221,5.923,5.923,0,0,1,.56-1.146c.121-.178.223-.379.351-.56a1.478,1.478,0,0,1,.47-.454,1.994,1.994,0,0,1,1.334-.3l.057.1a3.793,3.793,0,0,1-.613,1.1,1.965,1.965,0,0,1-.4.37,3.307,3.307,0,0,0-.45.337c-.136.129-.272.268-.4.409s-.26.284-.381.434a7.934,7.934,0,0,0-.7.964l-.113-.038" transform="translate(-104.715 -73.224)" fill="#fff"/>
  <path id="Path_11756" data-name="Path 11756" d="M178.272,590.646c.37.015.744.03,1.115.034a31.236,31.236,0,0,0,6.943-.557,37.487,37.487,0,0,0,5.113-1.111,2.846,2.846,0,0,1,.329-.079,1.851,1.851,0,0,0,1.063-.492c1.286-1.361-.371-4.5-.654-4.9a7.67,7.67,0,0,0-.9-1.006,6.544,6.544,0,0,0-2.254-1.283l-.049-.018c-.832-.291-1.353-.772-3.536-2.783-.409-.382-.889-.821-1.434-1.323-2.51-2.307-3.77-3.461-4.6-4.138a31.359,31.359,0,0,0-2.8-2.083c-.522-.341-1.895-.855-4.311-.25-1.956.488-2.92,2-4.092,3.025-.764.673-1.256,1.165-1.615,1.52a3.088,3.088,0,0,1-1.418,1.021,2.792,2.792,0,0,1-1.051.144,5.833,5.833,0,0,1-.953-.152,11.189,11.189,0,0,0-1.259-.2.187.187,0,0,0-.136.034.315.315,0,0,0-.1.114c-.167.457-.378.911-.586,1.35a7.309,7.309,0,0,1-.567,1.025,6.43,6.43,0,0,0-.442.748c-.012.03-1.323,3.551-.045,5.711.412.688,1.036.934,2.712,1.58.227.087.472.186.744.3.688.265,1.275.507,1.8.715a34.615,34.615,0,0,0,6.1,1.99,36.233,36.233,0,0,0,6.887,1.075" transform="translate(-102.368 -73.162)" fill="#ffb703"/>
  <path id="Path_11757" data-name="Path 11757" d="M183.5,577.885a.158.158,0,0,0-.038-.311,8.481,8.481,0,0,0-1.07.049,9.448,9.448,0,0,0-1.906.424,8.849,8.849,0,0,0-1.77.832,8.75,8.75,0,0,0-.877.617.154.154,0,0,0,.155.264c.329-.136.643-.272.968-.4.579-.235,1.157-.454,1.747-.658s1.183-.381,1.784-.544c.329-.1.666-.182,1.006-.268" transform="translate(-102.952 -73.391)" fill="#fff"/>
  <path id="Path_11758" data-name="Path 11758" d="M181.566,575.732a.153.153,0,0,0-.034-.3,7.726,7.726,0,0,0-1.071.046,9.076,9.076,0,0,0-3.676,1.252,8.013,8.013,0,0,0-.877.623.155.155,0,0,0,.155.265c.325-.144.643-.273.964-.4.583-.239,1.162-.458,1.747-.658s1.18-.382,1.785-.552c.333-.1.669-.182,1.006-.269" transform="translate(-102.89 -73.323)" fill="#fff"/>
  <path id="Path_11759" data-name="Path 11759" d="M179.1,573.814a.157.157,0,0,0-.034-.31,8.426,8.426,0,0,0-1.071.049,8.8,8.8,0,0,0-1.9.431,8.915,8.915,0,0,0-1.775.825,8,8,0,0,0-.877.62.156.156,0,0,0,.159.265c.321-.137.643-.277.964-.409.579-.234,1.162-.454,1.747-.654s1.18-.379,1.785-.548c.329-.095.665-.182,1-.269" transform="translate(-102.812 -73.262)" fill="#fff"/>
  <path id="Path_11760" data-name="Path 11760" d="M176.906,571.908a.156.156,0,0,0-.042-.306,8.341,8.341,0,0,0-1.067.045,8.662,8.662,0,0,0-4.557,1.876.156.156,0,0,0,.159.265c.325-.136.643-.272.964-.4.583-.238,1.162-.457,1.748-.657s1.184-.383,1.785-.549c.329-.1.665-.177,1.01-.268" transform="translate(-102.741 -73.201)" fill="#fff"/>
  <path id="Path_11761" data-name="Path 11761" d="M190.612,583.373a19.558,19.558,0,0,0-3.748.435c-.612.129-1.221.272-1.838.431s-1.214.348-1.8.514a15.133,15.133,0,0,1-1.781.4c-.605.1-1.218.167-1.827.216s-1.226.079-1.834.079c-.307.008-.609-.018-.912-.034s-.613-.022-.915-.068a40.514,40.514,0,0,1-7.231-1.539c-2.379-.708-4.735-1.528-7.087-2.4a44.626,44.626,0,0,0,6.867,3.078l.893.314.9.276c.3.1.6.186.9.265l.915.254.927.207c.306.069.617.129.934.182s.624.117.937.163l.95.109c.318.046.639.046.956.065s.643.03.96.022c.64-.012,1.279-.042,1.914-.117s1.256-.159,1.887-.28a12.986,12.986,0,0,0,1.853-.507l1.759-.624c.59-.208,1.179-.393,1.781-.567a28.7,28.7,0,0,1,3.633-.869" transform="translate(-102.437 -73.513)" fill="#fff"/>
  <path id="Path_11762" data-name="Path 11762" d="M204.094,559.472c-2.561-5.6-5.654-16.881-7.487-21.9-.273-.741-.53-1.452-.776-2.121-2.156-5.854-1.388-12.548-3.222-18.331-8.131-25.659-8.445-39.905-8.433-40.438L198.8,426.094l.8.038c.117.737,11.887,70.435,12.684,74.492A49.394,49.394,0,0,1,212.94,512c-.14,8.6,7.5,44,7.5,44l-.272.173c-4.9,3.053-12.873,3.483-15.694,3.547l-.269,0-.105-.246" transform="translate(-103.155 -68.563)" fill="#1e1735"/>
  <path id="Path_11763" data-name="Path 11763" d="M165.171,562.64c-2.137-.03-3.929-.155-5.059-.258l-.3-.026-.064-.3c-.472-2.322-1.293-6.754-1.857-9.3a213.048,213.048,0,0,1-4.614-26.25,60.43,60.43,0,0,1,3.049-24.134,62.426,62.426,0,0,0,2.053-6.936c1.706-8.014,2.643-41.778-2.655-56.352-5.36-14.756,2.276-29.206,2.355-29.354l.034-.056.049-.046c2.946-2.723,11.727-3.593,18.966-3.5,9.219.121,20.512,1.7,20.728,5.214.609,9.954,1.256,14.371.908,20.18-.39,6.527-8.691,40.843-13.653,57.331-1.706,5.662-5.136,18.141-6.232,21.609-.587,1.857-1.142,3.608-1.656,5.408-3.941,13.744-2.579,35.1-2.065,43.014.06.953.113,1.785.151,2.477l.019.341-.329.072a41.934,41.934,0,0,1-9.825.859" transform="translate(-102.163 -67.927)" fill="#312553"/>
  <path id="Path_11764" data-name="Path 11764" d="M198.913,435.09c.015.59.03,1.191.018,1.789l-.117,1.792c-.038.6-.125,1.188-.189,1.778s-.14,1.191-.23,1.777q-.517,3.539-1.237,7.037l-.348,1.755-.386,1.74-.782,3.479c-.541,2.314-1.127,4.617-1.7,6.924-1.18,4.6-2.47,9.167-3.815,13.72s-2.753,9.088-4.315,13.592c.756-4.7,1.75-9.356,2.813-13.985s2.2-9.235,3.385-13.827l1.8-6.879,1.835-6.872.461-1.716c.144-.571.291-1.146.446-1.717.314-1.141.6-2.288.885-3.437a63.021,63.021,0,0,0,1.472-6.951" transform="translate(-103.208 -68.85)" fill="#1e1735"/>
  <path id="Path_11765" data-name="Path 11765" d="M151.854,330.387c5.1-9.061,8.15-11.675,11.3-13.048,4.852-2.121,13.679,2.115,15.978,4.146s9.36,7.242,14.125,14.564,4.856,15.8,4.856,18.72-.53,4.674.177,9.439.964,12.714,1.672,20.13-1.115,27.364-1.293,28.684-25.489,3.336-35.341.708c-7.057-1.876-6.388-2.091-7.836-2.292-1.161-.163,1.936-9.447,2.894-13.774,1.77-7.987-8.312-34.913-9.538-44.137-.556-4.212-2.564-13.243,3.006-23.14" transform="translate(-102.004 -65.079)" fill="#c6e4f2"/>
  <path id="Path_11766" data-name="Path 11766" d="M199.749,353.453c.166,2.444.143,4.882.4,7.287.117,1.2.284,2.4.453,3.608s.319,2.413.477,3.623c.325,2.42.57,4.848.812,7.28.224,2.435.382,4.878.5,7.325q.125,3.681.053,7.344c-.068,2.447-.155,4.894-.341,7.329-.163,2.436-.393,4.868-.661,7.3-.152,1.213-.3,2.423-.473,3.633l-.284,1.808-.166.9-.087.454-.053.22-.03.113c-.008.018-.012.038-.019.052s-.011.031-.022.015a.08.08,0,0,1,0-.03c.012.068.03-.016.03-.045l.015-.109.014-.228.035-.457.042-.912.076-1.83.125-3.646c.083-2.436.143-4.867.2-7.295.026-2.428.087-4.86.068-7.288,0-2.423-.03-4.843-.143-7.264-.076-2.42-.235-4.845-.4-7.265-.144-2.424-.363-4.848-.537-7.276s-.4-4.848-.462-7.318c-.045-2.462.2-4.9.39-7.329" transform="translate(-103.639 -66.248)" fill="#023047"/>
  <path id="Path_11767" data-name="Path 11767" d="M165.971,290.487a105.9,105.9,0,0,1,1.623,13.653,17.193,17.193,0,0,1-4.315,12.483c-2.065,2.356,12.665,14.061,17.7,8.471,1.589-1.762-3.422-7.087,6.483-17.089,5.184-5.23-2.485-16.53-3.267-17.12s-18.221-.4-18.221-.4" transform="translate(-102.483 -64.24)" fill="#ec7d40"/>
  <path id="Path_11768" data-name="Path 11768" d="M176.872,297.342c.734-.227.859,9.556,3.722,11.943a19.954,19.954,0,0,0,11.171,4.22c1.9,0,1.482-1.788,2.038-3.46a39.821,39.821,0,0,0,1.842-8.006.707.707,0,0,1,.465-.64c.76-.284,2.375-.665,2.247-1.867-.163-1.414-4.372-6.043-4.372-6.993s.544-2.484.643-3.631-1.536-8.237-6.112-11.171a20.593,20.593,0,0,0-12.983-2.768c-4.772.476-9.36,1.687-11.171,4.391-4.776,7.136-2.2,15.119.575,16.742s8.785,2.193,11.935,1.24" transform="translate(-102.439 -63.743)" fill="#f79556"/>
  <path id="Path_11769" data-name="Path 11769" d="M190.147,278.562a1.084,1.084,0,0,0,.075-.314,2.237,2.237,0,0,0-.612-1.694c-.938-1.135-7.171-4.606-12.93-4s-10.846,1.066-13.255,4.284-1.68,3.812-1.88,4.285-.865,0-1.6,1.271-3.351,5.291-.337,11.985,6.429,6.364,6.5,8.974,2.36,2.3,4.148.537c3.688-3.623,1.982-7.753,3.513-8.505,2.583-1.275,3.132,1.274,6.414-1.135,1.986-1.46-1.932-4.406,2.652-8.937,3.226-3.188-.053-6.535-.791-7.6s7.844-1.244,8.108.855" transform="translate(-102.327 -63.668)" fill="#1e1735"/>
  <path id="Path_11770" data-name="Path 11770" d="M179.525,298.411s-.514-3.7-2.292-4.569a2.783,2.783,0,0,0-3.8.968c-.873,1.252-1.078,4.017,1.075,6.373s3.218,2.745,4.534,2.344.488-5.117.488-5.117" transform="translate(-102.793 -64.336)" fill="#f79556"/>
  <path id="Path_11771" data-name="Path 11771" d="M194.356,290.215a3.434,3.434,0,0,1-1.142-.133,3.652,3.652,0,0,1-.987-.514c-.147-.094-.3-.193-.442-.28a2.722,2.722,0,0,0-.416-.216,3.654,3.654,0,0,0-1.865-.245,3.329,3.329,0,0,0-.941.284,3.681,3.681,0,0,0-.847.56l-.091-.079a3.527,3.527,0,0,1,.344-.416,3.434,3.434,0,0,1,.409-.367,3.378,3.378,0,0,1,1-.514,3.829,3.829,0,0,1,1.123-.2,3.969,3.969,0,0,1,1.153.125c.193.048.394.132.553.185s.336.121.5.178a8.914,8.914,0,0,1,.938.321c.288.125.575.26.881.4s.216.881-.167.907" transform="translate(-103.265 -64.165)" fill="#1e1735"/>
  <path id="Path_11772" data-name="Path 11772" d="M190.016,292.949c.378-.136.733-.227,1.078-.321s.673-.185,1-.287.651-.2.976-.325.669-.261,1.055-.385a2.417,2.417,0,0,1-.738.934,3.112,3.112,0,0,1-1.055.548,3.482,3.482,0,0,1-1.176.148,2.706,2.706,0,0,1-1.138-.311" transform="translate(-103.341 -64.278)" fill="#1e1735"/>
  <path id="Path_11773" data-name="Path 11773" d="M193.593,293.034a.74.74,0,1,1-.73-.87.809.809,0,0,1,.73.87" transform="translate(-103.409 -64.295)" fill="#1e1735"/>
  <path id="Path_11774" data-name="Path 11774" d="M196.228,305.586a4.233,4.233,0,0,1-1.6.291c-1.119,0-2.072-.379-2.242-.053a.285.285,0,0,0,.026.3,5.251,5.251,0,0,0,3.2,2.107c.23-.912.446-1.7.616-2.64" transform="translate(-103.416 -64.723)" fill="#d65b5b"/>
  <path id="Path_11775" data-name="Path 11775" d="M580.732,274.353c-.82-.246-1.085-.715-1.675-.9-4.466-1.426-10.891,1.448-13.486,3.143-6.111,4.005-7.862,11.183-9.045,16.05A38.733,38.733,0,0,0,556,308.77c.892,4.606,2.738,14.1,11.193,19.669,7.023,4.625,14.583,3.887,16.908,3.664a20.652,20.652,0,0,0,10.884-3.664,18.789,18.789,0,0,0,6.728-9.167,22.73,22.73,0,0,0-.189-14.258c-1.3-4.125-4.323-6.508-6.837-12.7-1.729-4.239-.329-10.366-8.366-16-3.222-2.258-4.205-1.551-5.586-1.962" transform="translate(-114.987 -63.686)" fill="#1e1735"/>
  <path id="Path_11776" data-name="Path 11776" d="M597.673,328.711a17.937,17.937,0,0,0,3.166-2.7,18.616,18.616,0,0,0,2.5-3.392,18.007,18.007,0,0,0,1.656-3.914,22.028,22.028,0,0,0,.794-4.182,22.473,22.473,0,0,0-.038-4.277,26.1,26.1,0,0,0-.821-4.194c-.1-.345-.2-.684-.306-1.021l-.167-.506c-.053-.166-.129-.341-.193-.511a16.059,16.059,0,0,0-.919-2c-.708-1.267-1.529-2.416-2.307-3.539s-1.547-2.235-2.232-3.388c-.174-.288-.341-.583-.5-.874l-.249-.435-.232-.446c-.155-.3-.31-.59-.446-.9l-.223-.453-.105-.224c-.035-.079-.057-.147-.091-.219a24.757,24.757,0,0,1-1.109-3.813c-.167-.673-.34-1.357-.548-2.034-.091-.341-.224-.685-.337-1.021s-.256-.666-.393-1a15.945,15.945,0,0,0-2.22-3.7,17.316,17.316,0,0,0-1.482-1.546l-.39-.359a3.86,3.86,0,0,0-.4-.348l-.839-.647a9.937,9.937,0,0,0-.873-.594l-.885-.567a14.153,14.153,0,0,0-1.884-.957,6.872,6.872,0,0,0-2.06-.526c-.708-.065-1.389.056-2.073-.065a4.465,4.465,0,0,0,1.025.2c.34.042.677.079,1.01.152a6.683,6.683,0,0,1,1.867.722,17.326,17.326,0,0,1,1.7,1.1l.8.631a8.39,8.39,0,0,1,.776.647l.742.685a2.868,2.868,0,0,1,.359.355l.336.367a19.273,19.273,0,0,1,1.267,1.528,15.266,15.266,0,0,1,1.807,3.487,25.54,25.54,0,0,1,1.025,3.873,24.112,24.112,0,0,0,1.078,4.144q.051.137.1.261l.109.242.223.484c.14.325.3.644.458.957l.234.476.254.469c.166.311.333.624.518.927.708,1.222,1.5,2.394,2.288,3.529s1.581,2.231,2.228,3.362a14.366,14.366,0,0,1,.843,1.739c.061.152.117.3.17.45l.167.473c.109.318.212.639.314.956a25.822,25.822,0,0,1,.885,3.88,22.467,22.467,0,0,1,.216,3.974,21.885,21.885,0,0,1-.5,3.96,18.614,18.614,0,0,1-1.262,3.8,19.208,19.208,0,0,1-2.065,3.476,18.438,18.438,0,0,1-1.3,1.584c-.458.515-.946,1-1.452,1.464" transform="translate(-115.818 -63.727)" fill="#1e1735"/>
  <path id="Path_11777" data-name="Path 11777" d="M564.805,277.656a15.125,15.125,0,0,0-2.992,2.156,17.31,17.31,0,0,0-2.439,2.817,26.4,26.4,0,0,0-3.249,6.705c-.393,1.176-.734,2.367-1.051,3.547-.163.582-.306,1.195-.454,1.8-.072.3-.132.613-.2.92l-.177.911a38.965,38.965,0,0,0-.583,7.45c.03,1.248.113,2.492.265,3.737.076.624.169,1.244.286,1.864l.091.462.091.45c.06.3.125.6.193.9a38.065,38.065,0,0,0,2.22,7.114,25.437,25.437,0,0,0,3.9,6.358,20.286,20.286,0,0,0,5.707,4.663,24.179,24.179,0,0,1-4.948-5.249,27.491,27.491,0,0,1-3.236-6.342,35.7,35.7,0,0,1-1.059-3.411q-.443-1.731-.775-3.5l-.25-1.339-.076-.435q-.141-.868-.238-1.755c-.133-1.176-.2-2.359-.226-3.551-.016-.593-.012-1.191,0-1.785,0-.29.022-.59.034-.889s.026-.593.049-.892c.056-1.188.211-2.364.371-3.544l.143-.881c.049-.294.095-.586.163-.881.121-.579.223-1.165.367-1.758.268-1.18.533-2.356.847-3.509a29.161,29.161,0,0,1,2.594-6.645,18.226,18.226,0,0,1,2.019-2.953l.594-.685c.208-.212.431-.42.647-.632l.321-.325c.11-.1.227-.193.344-.294l.7-.59" transform="translate(-114.932 -63.832)" fill="#1e1735"/>
  <path id="Path_11778" data-name="Path 11778" d="M584.374,554.777s.049,5.386-.942,8.124a21.256,21.256,0,0,1-3.022,5.245s10.105,5.283,10.861,4.954,4.061-1.7,4.061-1.7-.091-.1.19-.472-.046-9.919.094-12.847-11.243-3.305-11.243-3.305" transform="translate(-115.784 -72.665)" fill="#ec7d40"/>
  <path id="Path_11779" data-name="Path 11779" d="M573.07,408.006c.874-.25,7.818.847,22.366-3.452,6.63-1.959,5.729-1.623,6.357-.125s5.479,17.694,6.6,28.038-1.5,34.134-1.5,34.134-2.368,25.046-2.243,29.656-.994,33.39-1.373,38.623-1.619,20.932-1.619,20.932-9.84,1.373-13.7.5-5.109-1.748-5.109-1.748l.125-21.677s-1.248-26.287-1.5-29.282-2.7-16.564-1.868-23.8c1.055-9.182-1.826-26.7-2.779-34.383-.3-2.462-3.324-28.783-3.324-29.657s-.436-7.76-.436-7.76" transform="translate(-115.55 -67.834)" fill="#fccc44"/>
  <path id="Path_11780" data-name="Path 11780" d="M548.887,408.569s-1.989,9.719-1.619,17.438a96.883,96.883,0,0,1-1.244,18.693c-.5,3.237-1.993,23.919-2.243,31.771s-.121,22.3,1.373,25.046,12.461,14.328,14.825,16.443,18.443,23.3,19.192,23.927,5.48-1.252,9.095-3.494,5.858-6.85,5.858-6.85-12.336-19.809-17.2-25.171a140.949,140.949,0,0,1-10.218-13.205c-1.615-2.281,2.4-15.464,4.855-23.55,2.394-7.884,5.987-23.795,9.1-26.91s-2.984-34.763-2.984-34.763l-28.79.624" transform="translate(-114.613 -67.985)" fill="#fccc44"/>
  <path id="Path_11781" data-name="Path 11781" d="M594.508,533.97c-2.466-3.086-4.8-6.258-7.095-9.45s-4.549-6.41-6.8-9.617c-1.12-1.611-2.247-3.21-3.392-4.783s-2.349-3.162-3.479-4.765c-2.307-3.2-4.553-6.433-6.648-9.765,2.719,2.893,5.279,5.876,7.79,8.9q.941,1.124,1.872,2.273c.624.756,1.229,1.516,1.849,2.307.311.385.609.782.908,1.179s.593.791.881,1.188c.583.8,1.157,1.607,1.721,2.409q3.382,4.862,6.482,9.882c2.072,3.343,4.081,6.739,5.91,10.241" transform="translate(-115.36 -70.778)" fill="#ea9a26"/>
  <path id="Path_11782" data-name="Path 11782" d="M582.25,542.856s8.334,8.489,9.655,10.661,2.976,5.544,3.067,5.483,10.229-5.245,10.229-5.245l-2.658-8.3a54.464,54.464,0,0,1-3.94-3.921,64.422,64.422,0,0,1-4.876-7.076l-11.477,8.4" transform="translate(-115.843 -72.017)" fill="#f79556"/>
  <path id="Path_11783" data-name="Path 11783" d="M594.666,568.007a.314.314,0,0,1,.583.049c.163.553.4,1.43.752,2.757a56,56,0,0,1,1.218,9.772c-.042,1.131-12.73,6.667-17.415,7.5a36.542,36.542,0,0,1-16.606-.795c-1.581-.635-1.625-3.774-.9-5.309s6.648-4.391,7.873-4.8,9.769-8.959,10.764-10.99,3.032-.858,3.4-.589,5.866,3.978,7.375,4.3c1.312.284,2.137-.177,2.961-1.9" transform="translate(-115.192 -72.992)" fill="#c33149"/>
  <path id="Path_11784" data-name="Path 11784" d="M584.8,573.412a11.14,11.14,0,0,0-1.361-1.252c-.238-.19-.484-.371-.738-.537-.125-.087-.254-.166-.378-.25a4.238,4.238,0,0,0-.386-.226c-.522-.307-1.109-.435-1.6-.75a11.938,11.938,0,0,1-1.563-1.062l.023-.121a3.385,3.385,0,0,1,.514-.113l.258-.027c.087-.008.169,0,.26,0,.17.008.337.027.507.049s.328.076.491.121a1.889,1.889,0,0,1,.47.189,2.71,2.71,0,0,1,.434.257l.393.31c.133.106.254.22.382.321s.254.216.375.325.242.22.351.337c.226.234.443.484.647.734a7.876,7.876,0,0,1,1.028,1.637l-.109.057" transform="translate(-115.732 -73.121)" fill="#fff"/>
  <path id="Path_11785" data-name="Path 11785" d="M582.367,574.9a9.963,9.963,0,0,0-1.2-1.054c-.216-.159-.428-.311-.646-.454-.1-.076-.22-.141-.329-.208a3.626,3.626,0,0,0-.337-.193,5.47,5.47,0,0,0-.7-.307c-.113-.049-.238-.083-.348-.14s-.215-.117-.328-.178a8.16,8.16,0,0,1-1.317-.987l.023-.125a2.34,2.34,0,0,1,.449-.125l.231-.034a1.445,1.445,0,0,1,.223-.012c.151,0,.3.016.454.03a3.206,3.206,0,0,1,.427.1,1.778,1.778,0,0,1,.416.159,2.829,2.829,0,0,1,.375.23l.344.276.325.291a3.3,3.3,0,0,1,.321.287,3.79,3.79,0,0,1,.307.3c.2.211.381.423.556.651a6.951,6.951,0,0,1,.869,1.441l-.113.056" transform="translate(-115.681 -73.185)" fill="#fff"/>
  <path id="Path_11786" data-name="Path 11786" d="M580.328,576.937a10.235,10.235,0,0,0-1.2-1.059c-.216-.155-.424-.311-.651-.45-.1-.075-.212-.14-.325-.208a3.258,3.258,0,0,0-.337-.189,4.458,4.458,0,0,0-.7-.311,2.573,2.573,0,0,1-.345-.139c-.113-.057-.219-.121-.329-.182a7.724,7.724,0,0,1-1.32-.982l.023-.121a2.451,2.451,0,0,1,.449-.133l.227-.034a2.23,2.23,0,0,1,.226-.008,3.7,3.7,0,0,1,.454.03c.143.027.288.061.431.1a1.826,1.826,0,0,1,.412.163,2.054,2.054,0,0,1,.375.227l.34.28.333.288c.113.087.216.186.321.284s.212.193.3.3c.2.212.381.427.556.651a7.027,7.027,0,0,1,.869,1.444l-.113.053" transform="translate(-115.616 -73.25)" fill="#fff"/>
  <path id="Path_11787" data-name="Path 11787" d="M578.289,578.976a11.014,11.014,0,0,0-1.2-1.059c-.212-.159-.428-.31-.647-.446-.106-.079-.22-.144-.329-.212s-.22-.135-.337-.193a4.389,4.389,0,0,0-.7-.3,3.611,3.611,0,0,1-.349-.143c-.109-.057-.219-.121-.325-.178a8.157,8.157,0,0,1-1.323-.986l.026-.121a2.464,2.464,0,0,1,.454-.133l.227-.034c.076,0,.147,0,.227,0a4.454,4.454,0,0,1,.446.023c.147.03.287.064.435.1a1.625,1.625,0,0,1,.409.163,2.4,2.4,0,0,1,.378.23l.344.28.329.284c.109.091.216.19.321.288s.208.193.306.3c.2.2.375.423.553.643a7.19,7.19,0,0,1,.873,1.448l-.117.053" transform="translate(-115.551 -73.315)" fill="#fff"/>
  <path id="Path_11788" data-name="Path 11788" d="M596.226,577.379c-2.493,1.444-5.06,2.742-7.67,3.952-1.3.613-2.617,1.195-3.959,1.736-.67.268-1.343.526-2.035.768a17.7,17.7,0,0,1-2.137.621,27.041,27.041,0,0,1-4.368.457q-2.172.068-4.341-.053t-4.311-.435c-.355-.052-.711-.109-1.067-.177s-.715-.129-1.062-.22a12.785,12.785,0,0,1-2.077-.631,29.99,29.99,0,0,0,4.266.419c.356.016.712.031,1.067.035s.711.026,1.067.026l1.07.008,1.074,0c1.422-.023,2.84-.065,4.255-.155a30.853,30.853,0,0,0,4.174-.5,17.121,17.121,0,0,0,2-.56c.669-.22,1.335-.47,2-.708,1.335-.491,2.666-1.013,4.005-1.52,2.666-1.04,5.336-2.087,8.048-3.059" transform="translate(-115.236 -73.385)" fill="#fff"/>
  <path id="Path_11789" data-name="Path 11789" d="M602,545a.522.522,0,0,1,.526-.756c1.418.186,3.877.522,5.2.829,1.921.449,4.965,1.361,5.517,2.817.893,2.375.574,7.3.7,10.249s1.532,8.482,1.853,11.947a28.009,28.009,0,0,1-2.677,13.322c-2.178,4.682-2.946,4.936-4.1,5.128a6.388,6.388,0,0,1-4.508-1.407c-1.214-1.093-1.66-8.146-1.66-10.324s-8.917-18.016-9.042-18.462,5.964-2.568,7.628-5A8.882,8.882,0,0,0,602,545" transform="translate(-116.212 -72.329)" fill="#c33149"/>
  <path id="Path_11790" data-name="Path 11790" d="M596.27,563.356a1.984,1.984,0,0,1,.155-.994,2.977,2.977,0,0,1,.215-.446c.087-.137.178-.268.277-.393a4.178,4.178,0,0,1,.332-.349c.121-.1.254-.185.386-.272.276-.151.556-.3.828-.438s.552-.268.829-.389.57-.212.851-.315c.29-.082.578-.165.865-.238s.587-.125.877-.173l.042.117c-.261.143-.514.288-.772.423l-.744.446c-.242.159-.488.311-.718.476a8.24,8.24,0,0,0-.678.507,4.622,4.622,0,0,0-.605.571c-.1.094-.189.193-.294.28a3.255,3.255,0,0,1-.311.253c-.435.321-.873.617-1.414.976l-.121-.042" transform="translate(-116.289 -72.811)" fill="#fff"/>
  <path id="Path_11791" data-name="Path 11791" d="M597.659,566.071a1.947,1.947,0,0,1,.155-.994,3.073,3.073,0,0,1,.216-.446c.087-.136.178-.268.276-.393a4.3,4.3,0,0,1,.333-.349c.121-.094.254-.189.385-.272.276-.151.557-.3.829-.435a9.053,9.053,0,0,1,.828-.393c.28-.118.571-.212.855-.315.288-.083.575-.163.862-.242.294-.064.586-.121.877-.177l.042.125c-.254.143-.514.286-.772.423l-.744.45c-.242.159-.488.306-.719.472s-.465.325-.677.5a5.482,5.482,0,0,0-.605.579c-.1.094-.193.193-.3.28a2.857,2.857,0,0,1-.31.253c-.435.325-.877.617-1.415.976l-.121-.042" transform="translate(-116.334 -72.897)" fill="#fff"/>
  <path id="Path_11792" data-name="Path 11792" d="M599.051,568.786a1.946,1.946,0,0,1,.155-.994,3.075,3.075,0,0,1,.216-.446,4.526,4.526,0,0,1,.276-.394,3.863,3.863,0,0,1,.333-.348c.121-.1.253-.185.385-.272.276-.151.556-.3.828-.438s.553-.269.829-.39.571-.211.855-.314c.288-.083.575-.163.866-.242.287-.064.587-.117.874-.177l.041.124c-.261.141-.515.287-.771.424l-.749.45c-.238.159-.488.306-.714.472s-.466.325-.677.5a5.362,5.362,0,0,0-.605.578,3.182,3.182,0,0,1-.3.28,2.569,2.569,0,0,1-.31.254c-.435.325-.878.617-1.414.976l-.121-.042" transform="translate(-116.378 -72.983)" fill="#fff"/>
  <path id="Path_11793" data-name="Path 11793" d="M600.438,571.5a2.064,2.064,0,0,1,.159-1,2.917,2.917,0,0,1,.219-.439,4.156,4.156,0,0,1,.272-.394c.106-.121.216-.238.333-.348.121-.095.254-.185.389-.272.273-.152.553-.3.825-.438s.552-.269.829-.39.57-.208.854-.314c.287-.079.575-.163.866-.238s.586-.125.873-.178l.038.121c-.256.144-.51.288-.768.424l-.748.45c-.238.159-.488.306-.714.473s-.466.325-.678.5a5.533,5.533,0,0,0-.605.578c-.094.095-.193.193-.294.28a3.3,3.3,0,0,1-.311.258c-.435.322-.877.613-1.414.972l-.124-.042" transform="translate(-116.422 -73.07)" fill="#fff"/>
  <path id="Path_11794" data-name="Path 11794" d="M610.512,547.82q.023,2.473.2,4.92c.113,1.63.28,3.261.506,4.868.246,1.607.538,3.218.821,4.844s.5,3.271.647,4.931a31.632,31.632,0,0,1,.026,5.015,22,22,0,0,1-.995,4.935,27.486,27.486,0,0,1-1.9,4.621,20.846,20.846,0,0,1-1.282,2.129A12.267,12.267,0,0,1,606.949,586a9.789,9.789,0,0,0,.681-1.026c.216-.348.416-.7.6-1.07a23.5,23.5,0,0,0,1.025-2.212c.159-.375.3-.757.443-1.139s.272-.764.4-1.15c.242-.775.474-1.55.674-2.341a27.713,27.713,0,0,0,.657-9.575c-.242-3.234-.885-6.448-1.187-9.765-.076-.829-.121-1.653-.144-2.481s-.022-1.659,0-2.484a37.743,37.743,0,0,1,.417-4.936" transform="translate(-116.63 -72.443)" fill="#fff"/>
  <path id="Path_11795" data-name="Path 11795" d="M553.017,322.867c-.968-.087-5.067.6-8.372,7.757s-10.911,31.657-11.875,37.318-.673,10.309,2.992,13.637c1.683,1.524,8.653,4.174,12.181-4.372s10.759-53.818,5.075-54.34" transform="translate(-114.251 -65.273)" fill="#1e1735"/>
  <path id="Path_11796" data-name="Path 11796" d="M603.2,329.113s5.382.692,7.322,5.5,5.2,17.722,6.686,23.553,5.264,11.659,3.891,18.293-1.83,8.807-6.178,9.946-8.471-9.352-12.469-20.577c-3.5-9.8-1.535-32.939.748-36.713" transform="translate(-116.426 -65.472)" fill="#312553"/>
  <path id="Path_11797" data-name="Path 11797" d="M579.837,410.213c10.638-1.373,21.359-5.128,21.84-7.344s-3.646-4.614-3.313-9.829c1.743-27.558,7.934-62.8,5.672-63.454-8.543-2.48-16.553-8.664-25.289-9.477-7.965-.744-11.167,1.69-16.553,2.009s-9.091.109-10.048,1c-2.548,2.383-4.421,18.972-3.188,35.087.59,7.764,3.8,22.1,2.882,34.944-.492,6.92-3.763,12.6-3.661,14.707.143,3.041,14.533,4.565,31.657,2.356" transform="translate(-114.757 -65.181)" fill="#219ebc"/>
  <path id="Path_11798" data-name="Path 11798" d="M588.62,290.478c-1.429,9.034-1.784,10.906-2.016,17-.317,8.494.144,10.586-.2,13.649-.355,3.176-4.012,5.2-8.759,4.753-3.305-.31-6.273-2.121-6.345-4.95a89.536,89.536,0,0,0-1.687-15.442c-1.233-6.035-1.664-9.972.2-12.914,3.536-5.574,19.434-6.051,18.81-2.095" transform="translate(-115.406 -64.159)" fill="#ec7d40"/>
  <path id="Path_11799" data-name="Path 11799" d="M563.434,285.045a11.1,11.1,0,0,0-.767,7.265,10.159,10.159,0,0,1,.389,3.275,9.694,9.694,0,0,1-.321,1.91,12.622,12.622,0,0,0-.1,5.359c.556,2.583,3.948,10.483,6.557,12.007a6.346,6.346,0,0,0,2.95.821,10.477,10.477,0,0,0,4.481-.748c6.081-2.4,8.717-8.99,9.027-9.8a19.9,19.9,0,0,0,.991-3.637c.907-4.7,4.273-10.048.639-16.742-1.059-1.944-7.038-9.435-18.021-5.529a9.965,9.965,0,0,0-5.824,5.82" transform="translate(-115.209 -63.847)" fill="#f79556"/>
  <path id="Path_11800" data-name="Path 11800" d="M580.536,277.1a2.716,2.716,0,0,0-.333.11c-1.043.431-2.121,2.258-2.545,4.6a10.689,10.689,0,0,0-.133,3.109c.488,5.222,6.83,5.843,8.445,10.944,1.357,4.308,3.037,2.13,3.631.469,2.583-7.159,3.646-12.832-6.285-18.747a4.879,4.879,0,0,0-2.779-.484" transform="translate(-115.691 -63.813)" fill="#1e1735"/>
  <path id="Path_11801" data-name="Path 11801" d="M577.908,276.3c-1.048-.454-7.593-2.753-14.284,4.342-3.74,3.963-3.267,9.64-3.127,11.791a3.518,3.518,0,0,0,1.43,2.746c.352.019-2.061-6.152,10.563-9.787a9.062,9.062,0,0,0,5.146-3.729c.991-1,2.375-3.022,1.668-4.341a2.552,2.552,0,0,0-1.4-1.021" transform="translate(-115.146 -63.766)" fill="#1e1735"/>
  <path id="Path_11802" data-name="Path 11802" d="M586.215,295.89c.306-.242,1.716-1.343,2.859-.832a3.53,3.53,0,0,1,1.815,2.794c.224,2.122-.734,5.352-2.67,6.792a2.687,2.687,0,0,1-2.046.685,2.561,2.561,0,0,1-1.528-1.131c-1.482-2.107-.889-6.388,1.569-8.308" transform="translate(-115.894 -64.383)" fill="#f79556"/>
  <path id="Path_11803" data-name="Path 11803" d="M574.992,309.843a.2.2,0,0,0-.136-.321,26.305,26.305,0,0,0-4.1-.284,16.785,16.785,0,0,0-2.961.341.21.21,0,0,0-.148.3,3.729,3.729,0,0,0,3.529,2.231,5.088,5.088,0,0,0,3.815-2.262" transform="translate(-115.377 -64.839)" fill="#d65b5b"/>
  <path id="Path_11804" data-name="Path 11804" d="M567.245,294.773a2.729,2.729,0,0,0-.59-.991,3.774,3.774,0,0,0-.889-.733,4.092,4.092,0,0,0-2.261-.439,4.849,4.849,0,0,0-.571.049l-.284.042c-.1.019-.2.042-.3.068a3.479,3.479,0,0,0-1.041.545,9.91,9.91,0,0,0-1.452,1.577l.083.106c.315-.2.575-.419.855-.616a5.538,5.538,0,0,1,.862-.5,2.48,2.48,0,0,1,.877-.25l.212-.012.238.008a4.1,4.1,0,0,1,.468.042,3.9,3.9,0,0,1,.458.1c.143.052.292.094.435.163.288.109.563.223.863.318l.922.294c.321.11.647.22,1.021.321l.094-.094" transform="translate(-115.129 -64.309)" fill="#1e1735"/>
  <path id="Path_11805" data-name="Path 11805" d="M582.345,293.4a7.824,7.824,0,0,0-2.318-1.319,7.053,7.053,0,0,0-2.746-.416c-.235,0-.473.042-.715.053s-.481.068-.719.109a3.56,3.56,0,0,0-1.327.579,3.889,3.889,0,0,0-1.607,2.341l.136.109c.9-.348,1.6-.681,2.318-.956.349-.144.681-.3,1.018-.47.17-.079.348-.163.522-.238a4.783,4.783,0,0,1,.552-.167,5.622,5.622,0,0,1,1.166-.151,6.167,6.167,0,0,1,1.206.038,8.792,8.792,0,0,1,2.427.635l.087-.147" transform="translate(-115.545 -64.279)" fill="#1e1735"/>
  <path id="Path_11806" data-name="Path 11806" d="M579.1,297.772c-.022.224-.772.825-2.8.609-.9-.1-1.773-.419-1.728-.869a1.722,1.722,0,0,1,1.494-1.2c1.377-.083,3.083,1.01,3.033,1.463" transform="translate(-115.598 -64.427)" fill="#e6e6e6"/>
  <path id="Path_11807" data-name="Path 11807" d="M577.614,297.092a1.167,1.167,0,0,0-2.228.685,1.185,1.185,0,1,0,2.228-.685" transform="translate(-115.623 -64.428)" fill="#1e1735"/>
  <path id="Path_11808" data-name="Path 11808" d="M574.328,297.824a2.647,2.647,0,0,1,.742-.48,1.78,1.78,0,0,1,.734-.125,7.367,7.367,0,0,1,1.587.284,14.678,14.678,0,0,0,1.8.367,3.545,3.545,0,0,0,1.018-.027,1.491,1.491,0,0,0,.508-.177.881.881,0,0,0,.351-.393.939.939,0,0,1-.442.06,1.925,1.925,0,0,1-.4-.095c-.258-.086-.526-.2-.794-.31a11.6,11.6,0,0,0-1.743-.624,3.933,3.933,0,0,0-2.05-.038,1.947,1.947,0,0,0-.942.6,1.634,1.634,0,0,0-.367.957" transform="translate(-115.59 -64.422)" fill="#1e1735"/>
  <path id="Path_11809" data-name="Path 11809" d="M566.812,298.048c-.018.2-.6.756-2.152.589-.688-.071-.983-.446-.941-.851.042-.385.193-.953.79-1.006,1.059-.09,2.345.863,2.3,1.267" transform="translate(-115.252 -64.442)" fill="#e6e6e6"/>
  <path id="Path_11810" data-name="Path 11810" d="M565.554,297.538a.982.982,0,0,0-1.875.574,1,1,0,1,0,1.875-.574" transform="translate(-115.25 -64.446)" fill="#1e1735"/>
  <path id="Path_11811" data-name="Path 11811" d="M562.641,297.864c.246-.117.449-.23.653-.3a1.663,1.663,0,0,1,.561-.114,2.986,2.986,0,0,1,1.066.261,8.484,8.484,0,0,0,1.331.462,2.161,2.161,0,0,0,.825.034.946.946,0,0,0,.677-.454,1.2,1.2,0,0,1-.654-.087,4.639,4.639,0,0,1-.537-.3,7.541,7.541,0,0,0-1.236-.682,3.01,3.01,0,0,0-.8-.2,1.914,1.914,0,0,0-.889.129,1.636,1.636,0,0,0-.677.526,1.711,1.711,0,0,0-.318.722" transform="translate(-115.218 -64.432)" fill="#1e1735"/>
  <path id="Path_11812" data-name="Path 11812" d="M568.6,355.592s2.644-.82,3.245-.086.643,1.331-.71,2.885-2.2,1.664-2.2,1.664l-.333-4.463" transform="translate(-115.408 -66.304)" fill="#ec7d40"/>
  <path id="Path_11813" data-name="Path 11813" d="M558.687,369a9.406,9.406,0,0,1,.345,1.967c0,.76.514,1.611-1.589,1.925s-4.247-5.1-4.281-5.34-2.106-4.28-.242-5.422,5.356,5.143,5.767,6.871" transform="translate(-114.883 -66.52)" fill="#ec7d40"/>
  <path id="Path_11814" data-name="Path 11814" d="M556.438,372.464c-.069.2-5.844,5.866-7.348,7.125-2.027,1.712-5.911,2.722-9.515,2.927s-5.76-3.075-5.9-5.574c-.148-2.655,2.079-6.5,6.92-7.136,3.124-.409,4.418.4,8.366-1.974,2.632-1.588,3.055-2.375,3.055-2.375l4.422,7.007" transform="translate(-114.295 -66.631)" fill="#ec7d40"/>
  <path id="Path_11815" data-name="Path 11815" d="M545.5,368.578a4.051,4.051,0,0,0-3.374-1.418c-2.383-.045-5.65.053-8.184,3.154-1.8,2.208-1.921,5.729-1.626,7.318.477,2.586,1.993,6.182,5.749,6.958,3.369.7,6.028-.147,7.457-1.713.526-.575.881-1.331.439-1.025s-.893,1.373-2.072.911c-1.225-.465-2.783-2.836-1.868-9.1.484-3.287,2.111-6.142,2.722-4.882.42.863,1.043.458.757-.2" transform="translate(-114.247 -66.685)" fill="#312553"/>
  <path id="Path_11816" data-name="Path 11816" d="M587.426,391.683l20.247-46.788,11.459,4.47L600.25,392.526l-12.824-.843" transform="translate(-116.008 -65.975)" fill="#fff"/>
  <path id="Path_11817" data-name="Path 11817" d="M570.209,369.48,559.457,372.2a.54.54,0,0,1-.639-.345l-6.588-18.946L567.4,349.07l3.214,19.8a.544.544,0,0,1-.4.609" transform="translate(-114.886 -66.109)" fill="#c33149"/>
  <path id="Path_11818" data-name="Path 11818" d="M568.423,349.35l-17,4.3-.167-1.808a.23.23,0,0,1,.174-.249l16-4.047a.238.238,0,0,1,.276.129l.714,1.675" transform="translate(-114.855 -66.06)" fill="#fff"/>
  <path id="Path_11819" data-name="Path 11819" d="M566.714,347.793l-14.453,3.656-.163-1.774a.268.268,0,0,1,.2-.291L565.689,346a.277.277,0,0,1,.322.155l.7,1.638" transform="translate(-114.882 -66.01)" fill="#fff"/>
  <path id="Path_11820" data-name="Path 11820" d="M552.308,363.476s-1.014-2.031,2.068-2.658,6.161-1.732,7.489-1.857c1.5-.136,2.034.631,2.17,1.085a1.439,1.439,0,0,1-.839,1.751c-.526.28.737-.042,1.225.665s.454,1.434-.734,2.2-.038.385.557,1.017.53,1.608-.557,2.379c0,0-4.379,1.6-5.46,1.884a3.059,3.059,0,0,1-2.137.068,1.868,1.868,0,0,1-1.293-1.682c-.193-1-.912-.908-1.438-1.714a3.4,3.4,0,0,1-.453-2.087c.034-.318-.246-.14-.6-1.051" transform="translate(-114.883 -66.423)" fill="#f79556"/>
  <path id="Path_11821" data-name="Path 11821" d="M554.422,359.219s1.3,3.767,1.24,3.767a1.453,1.453,0,0,1-1.845-.049c-.851-.821-2.6-2.738-2.783-3.638a2.129,2.129,0,0,1,.76-2.3,21.518,21.518,0,0,1,5.083-2.224c.946-.155,1.32.035,1.547.254a1.308,1.308,0,0,1,.226.321c.133.329.284,1.051-.691,1.744a37,37,0,0,1-3.537,2.129" transform="translate(-114.846 -66.288)" fill="#f79556"/>
  <path id="Path_11822" data-name="Path 11822" d="M562.56,362.164a8.11,8.11,0,0,1-1.721,1.044,14.178,14.178,0,0,1-1.879.692,13.816,13.816,0,0,1-1.96.409,9.541,9.541,0,0,1-2,.076,19.573,19.573,0,0,1,1.869-.7c.623-.193,1.248-.381,1.872-.56,1.256-.355,2.5-.7,3.824-.964" transform="translate(-114.974 -66.526)" fill="#ec7d40"/>
  <path id="Path_11823" data-name="Path 11823" d="M562.836,365.461a5.988,5.988,0,0,1-1.49.9,10.666,10.666,0,0,1-1.627.556,11.229,11.229,0,0,1-1.7.291,7.592,7.592,0,0,1-1.728-.031,13.386,13.386,0,0,1,1.611-.593c.537-.167,1.078-.314,1.619-.45s1.081-.257,1.63-.374,1.1-.216,1.683-.3" transform="translate(-115.016 -66.631)" fill="#ec7d40"/>
  <path id="Path_11824" data-name="Path 11824" d="M580,473.062c-.685-3.2-1.255-6.388-1.811-9.586s-1.066-6.4-1.5-9.629c-.219-1.619-.374-3.234-.529-4.848s-.3-3.237-.4-4.859c-.231-3.245-.4-6.493-.382-9.765.76,3.18,1.331,6.384,1.845,9.594.257,1.6.488,3.207.708,4.818l.623,4.817c.428,3.207.825,6.441,1.1,9.685a88.436,88.436,0,0,1,.352,9.772" transform="translate(-115.624 -68.827)" fill="#ea9a26"/>
  <path id="Path_11825" data-name="Path 11825" d="M587.859,392.6l20.925-48.251,11.455,4.466-19.563,44.636-12.817-.851" transform="translate(-116.022 -65.958)" fill="#c33149"/>
  <path id="Path_11826" data-name="Path 11826" d="M604.041,381.636a5.036,5.036,0,0,0-3.244.359,19.261,19.261,0,0,1-3.888,1.747,3.88,3.88,0,0,1-3-.651c-1-.643-3.267-1.672-3.373-2.45s.136-.924.325-1.109-.382-.268-.568-.946a1.217,1.217,0,0,1,.3-1.4c.366-.234.2-.389,0-.677-.484-.692-.375-1.789.325-2.035.624-.215.268-.427.185-.79-.091-.424.212-1.475,1.7-1.448a34.825,34.825,0,0,1,3.974.734c.621.128,2.894-.817,4.025-1.138s2.057-.605,4.246,1.9c1.819,2.072,5.12,3.555,4.632,5.279a4.714,4.714,0,0,1-5.635,2.621" transform="translate(-116.097 -66.828)" fill="#f79556"/>
  <path id="Path_11827" data-name="Path 11827" d="M605.335,374.112s-1.619-3.15-3.279-3.374a12.065,12.065,0,0,0-2.794-.068,18.116,18.116,0,0,0-3.654.352c-.839.212-1.948.624-1.444,1.531s1.032.972,2.647,1.309a8.658,8.658,0,0,0,3.755-.416,7.333,7.333,0,0,1,4.769.666" transform="translate(-116.219 -66.795)" fill="#f79556"/>
  <path id="Path_11828" data-name="Path 11828" d="M591.129,379.82a7.387,7.387,0,0,1,1.263.409c.4.166.794.351,1.172.553s.748.411,1.115.635.718.469,1.1.722a3.571,3.571,0,0,1-1.327-.22,8.027,8.027,0,0,1-1.206-.522,8.38,8.38,0,0,1-1.12-.692,6.015,6.015,0,0,1-.994-.885" transform="translate(-116.126 -67.089)" fill="#ec7d40"/>
  <path id="Path_11829" data-name="Path 11829" d="M591.1,377.168a10.93,10.93,0,0,1,1.505.48q.726.283,1.426.625c.461.226.923.465,1.369.722s.892.526,1.343.82a6.026,6.026,0,0,1-1.563-.314,11.219,11.219,0,0,1-1.456-.6,13.314,13.314,0,0,1-1.365-.76,8.655,8.655,0,0,1-1.26-.972" transform="translate(-116.125 -67.004)" fill="#ec7d40"/>
  <path id="Path_11830" data-name="Path 11830" d="M591.5,374.66a11.656,11.656,0,0,1,1.6.386c.523.155,1.029.336,1.532.536s1,.409,1.491.639.964.466,1.463.726a5.945,5.945,0,0,1-1.649-.211,12.328,12.328,0,0,1-1.562-.5,15.29,15.29,0,0,1-1.482-.685,9.129,9.129,0,0,1-1.392-.893" transform="translate(-116.138 -66.924)" fill="#ec7d40"/>
  <path id="Path_11831" data-name="Path 11831" d="M607.1,376.6a1.279,1.279,0,0,1,1.312-.1,15.889,15.889,0,0,0,3.169.617c2.44.318,5.42,1.456,6.169,2.976,1.255,2.564,1.508,4.549.532,6.1s-3.323,2.745-5.631,3.142-4.489.193-5.45-.533c-2.17-1.637-1.49-5.378-4.791-6.823-2.19-.949,2.579-4.1,4.69-5.378" transform="translate(-116.467 -66.978)" fill="#f79556"/>
  <path id="Path_11832" data-name="Path 11832" d="M159.81,487.67l-11.568-8.842L289.687,293.723l11.568,8.841L159.81,487.67" transform="translate(-102.01 -64.345)" fill="#69a3a2"/>
  <path id="Path_11833" data-name="Path 11833" d="M305.947,301.948l-11.572-8.838,22.475-17.45Zm0,0" transform="translate(-106.668 -63.769)" fill="#ffc973"/>
  <path id="Path_11834" data-name="Path 11834" d="M305.16,285.005l6.2,4.73,5.839-14.076Zm0,0" transform="translate(-107.011 -63.769)" fill="#7ca417"/>
  <path id="Path_11835" data-name="Path 11835" d="M272.211,353.21a1.735,1.735,0,0,0,1.422-1.1,1.647,1.647,0,0,0-.839-2.172,21.349,21.349,0,0,0-7.892-1.361,1.787,1.787,0,0,0-1.755,1.623,1.918,1.918,0,0,0,.019.469,1.525,1.525,0,0,0-1.279.874,1.578,1.578,0,0,0-.068,1.183,1.3,1.3,0,0,0-.847.639,1.258,1.258,0,0,0,.4,1.717,0,0,0,0,1,0,0,1.279,1.279,0,0,0-.949.651,1.262,1.262,0,0,0,.389,1.72,12.754,12.754,0,0,0,1.236.643,24.782,24.782,0,0,0,5.824,1.679A1.318,1.318,0,0,0,269.1,357.7c.121.026.245.057.359.076a1.294,1.294,0,0,0,1.459-1.02,1.259,1.259,0,0,0-.328-1.176c.079.011.163.022.234.03a1.512,1.512,0,0,0,1.619-1.3,1.471,1.471,0,0,0-.235-1.089" transform="translate(-105.58 -66.093)" fill="#f79556"/>
  <path id="Path_11836" data-name="Path 11836" d="M163.291,387.595c2.843-1.535,8.043-1.958,11.137,5.366s4.95,18.039,7.835,25.255,5.571,12.782,8.562,17.01-1.127,8.679-4.323,6.516-13.1-13.837-18.686-24.249c-4.545-8.491-14.631-24.431-4.526-29.9" transform="translate(-102.351 -67.307)" fill="#f79556"/>
  <path id="Path_11837" data-name="Path 11837" d="M176.035,395.413c-.522-1.6-1.024-2.958-1.532-4.152-.147-.351-.3-.68-.457-1a15.445,15.445,0,0,1-1.377-9.031c1.141-8,1.323-20.729.533-31.771-1.028-14.431-5.283-17.664-12.374-17.419-7.9.261-11.092,8.021-11.235,15.668-.159,8.093,5.752,39.712,6.591,43.165a48.626,48.626,0,0,0,3.521,10.275c.178.378.337.756.48,1.145l.446-.431c2.485-2.39,7.374-6.4,12.2-6.4a7.9,7.9,0,0,1,2.677.457l.787.284-.265-.794" transform="translate(-102.053 -65.565)" fill="#c6e4f2"/>
  <path id="Path_11838" data-name="Path 11838" d="M175.24,392.054c-.427-.772-.907-1.517-1.274-2.337a14.189,14.189,0,0,1-.87-2.549,15.679,15.679,0,0,1-.294-5.408c.169-1.732.318-3.476.415-5.219.114-1.744.194-3.486.258-5.238s.133-3.5.163-5.249c.068-1.75.068-3.5.121-5.256.057-3.507.087-7.016.181-10.548a93.426,93.426,0,0,1,1.093,10.528c.095,1.762.125,3.525.152,5.291.007,1.766-.035,3.532-.083,5.3-.095,1.762-.182,3.528-.352,5.294s-.366,3.521-.688,5.272a17.023,17.023,0,0,0-.181,5.089,15.918,15.918,0,0,0,.506,2.537c.125.42.261.833.416,1.237l.439,1.256" transform="translate(-102.789 -66.146)" fill="#023047"/>
  <path id="Path_11839" data-name="Path 11839" d="M149.591,348.438l.159,1.7.219,1.688c.148,1.127.337,2.25.507,3.369l1.131,6.716,2.341,13.43,2.288,13.436a64.606,64.606,0,0,0,3.468,13.1,38.723,38.723,0,0,1-2.847-6.241c-.375-1.085-.715-2.178-1.041-3.274-.163-.549-.3-1.112-.439-1.676l-.385-1.668c-.522-2.223-.95-4.454-1.407-6.69-.435-2.231-.839-4.478-1.24-6.72-.371-2.243-.745-4.489-1.086-6.743-.318-2.254-.65-4.511-.907-6.773-.133-1.131-.261-2.269-.371-3.4s-.2-2.276-.3-3.414l-.094-1.706c-.03-.571-.072-1.142-.072-1.713l-.012-1.714.083-1.713" transform="translate(-102.05 -66.088)" fill="#023047"/>
  <path id="Path_11840" data-name="Path 11840" d="M188.846,433.109c.454.594,7.484,5.631,9.057,7.166s1.812,1.982,2.583,4.6,1.7,6.985.9,7.851c-.7.768-1.853.7-2.083.253s-.208.3-.742.7a1.946,1.946,0,0,1-2.224.17c-.454-.345.034.06-.786.491a2.085,2.085,0,0,1-2.428-.173c-.389-.473-.3.54-1.611.778-.677.125-1.593-1.115-2.023-2.552a18.348,18.348,0,0,0-2.9-4.644,23.669,23.669,0,0,1-2.692-5.438c-.639-1.777-1.9-5.934-.11-7.915s3.991-2.686,5.06-1.29" transform="translate(-103.114 -68.764)" fill="#f79556"/>
  <path id="Path_11841" data-name="Path 11841" d="M191.328,449.324a4.819,4.819,0,0,1,.87,1.1,7.169,7.169,0,0,1,.59,1.24,6.7,6.7,0,0,1,.333,1.343,3.586,3.586,0,0,1-.076,1.411c-.224-.427-.409-.825-.587-1.23s-.344-.816-.492-1.228-.284-.836-.4-1.271a7.8,7.8,0,0,1-.238-1.365" transform="translate(-103.383 -69.304)" fill="#ec7d40"/>
  <path id="Path_11842" data-name="Path 11842" d="M194.773,448.121a5.827,5.827,0,0,1,.859,1.309,8.383,8.383,0,0,1,.571,1.421,7.975,7.975,0,0,1,.318,1.513,4.559,4.559,0,0,1-.083,1.569c-.223-.48-.409-.946-.586-1.415s-.337-.934-.476-1.414-.277-.961-.386-1.452a9.951,9.951,0,0,1-.216-1.532" transform="translate(-103.493 -69.266)" fill="#ec7d40"/>
  <path id="Path_11843" data-name="Path 11843" d="M197.945,446.816a6,6,0,0,1,.92,1.351,8.458,8.458,0,0,1,.6,1.509,7.807,7.807,0,0,1,.29,1.6,4.883,4.883,0,0,1-.136,1.637c-.216-.522-.371-1.014-.53-1.512s-.318-.984-.462-1.486-.28-1-.4-1.505a13.124,13.124,0,0,1-.28-1.593" transform="translate(-103.594 -69.224)" fill="#ec7d40"/>
  <path id="Path_11844" data-name="Path 11844" d="M315.828,350.945a3.289,3.289,0,0,1-2.33-.972l-17.619-17.611a3.3,3.3,0,1,1,4.67-4.663l15.279,15.283L331.113,327.7a3.3,3.3,0,1,1,4.666,4.663l-17.615,17.611a3.306,3.306,0,0,1-2.337.972" transform="translate(-106.685 -65.397)" fill="#69a3a2"/>
</svg>
