<svg xmlns="http://www.w3.org/2000/svg" xmlns:xlink="http://www.w3.org/1999/xlink" width="814.416" height="436.136" viewBox="0 0 814.416 436.136">
  <defs>
    <clipPath id="clip-path">
      <path id="Path_12035" data-name="Path 12035" d="M31,869H235v203H31Zm0,0" fill="#cdf7f6"/>
    </clipPath>
    <clipPath id="clip-path-2">
      <path id="Path_12034" data-name="Path 12034" d="M6.5,902.93l194.258-58.836L259.59,1038.35,65.332,1097.19Zm0,0" fill="#cdf7f6"/>
    </clipPath>
    <clipPath id="clip-path-3">
      <path id="Path_12033" data-name="Path 12033" d="M115.348,898.977l3.98-26a4.267,4.267,0,0,1,8.227-.821l8.918,24.766a4.265,4.265,0,0,0,7.664.77L157.73,875.16a4.266,4.266,0,0,1,7.907,2.406l-1.219,26.3a4.254,4.254,0,0,0,6.773,3.625l21.2-15.6a4.267,4.267,0,0,1,6.39,5.246l-11.2,23.8a4.264,4.264,0,0,0,4.891,5.949l25.554-6.32a4.263,4.263,0,0,1,3.883,7.3l-19.476,17.711a4.279,4.279,0,0,0,2.234,7.383l26.031,3.93a4.267,4.267,0,0,1,.821,8.226l-24.766,8.922a4.261,4.261,0,0,0-.77,7.66l22.528,13.594a4.268,4.268,0,0,1-2.407,7.911l-26.3-1.22a4.252,4.252,0,0,0-3.625,6.77l15.6,21.2a4.267,4.267,0,0,1-5.246,6.39l-23.8-11.2a4.264,4.264,0,0,0-5.949,4.89l6.32,25.56a4.263,4.263,0,0,1-7.3,3.88L158.1,1039.99a4.281,4.281,0,0,0-7.383,2.24l-3.957,26.08a4.267,4.267,0,0,1-8.227.82l-8.918-24.77a4.267,4.267,0,0,0-7.664-.77l-13.594,22.53a4.268,4.268,0,0,1-7.91-2.41l1.223-26.29a4.26,4.26,0,0,0-6.777-3.63L73.7,1049.4a4.269,4.269,0,0,1-6.391-5.25l11.2-23.8a4.264,4.264,0,0,0-4.891-5.95l-25.555,6.32a4.263,4.263,0,0,1-3.883-7.3l19.477-17.713a4.279,4.279,0,0,0-2.234-7.383l-26.043-3.969a4.267,4.267,0,0,1-.82-8.226l24.766-8.918a4.265,4.265,0,0,0,.77-7.664L37.563,945.953a4.265,4.265,0,0,1,2.406-7.906l26.293,1.219a4.258,4.258,0,0,0,3.629-6.778L54.285,911.293a4.268,4.268,0,0,1,5.246-6.391l23.8,11.2a4.264,4.264,0,0,0,5.949-4.891l-6.32-25.555a4.264,4.264,0,0,1,7.3-3.883l17.711,19.477A4.267,4.267,0,0,0,115.348,898.977Zm0,0" fill="#8ecae6"/>
    </clipPath>
    <clipPath id="clip-path-4">
      <path id="Path_12166" data-name="Path 12166" d="M141,1285H346v155H141Zm0,0" fill="#ffb703"/>
    </clipPath>
    <clipPath id="clip-path-5">
      <path id="Path_12165" data-name="Path 12165" d="M248.527,1288.67l5.219,8.76a5.575,5.575,0,0,0,8.442,1.35l7.664-6.77a5.576,5.576,0,0,1,9.093,2.94l2.243,9.94a5.547,5.547,0,0,0,7.621,3.88l9.379-4a5.578,5.578,0,0,1,7.746,5.63L305,1320.55a5.539,5.539,0,0,0,6.035,6.04l10.153-.94a5.584,5.584,0,0,1,5.625,7.74l-3.993,9.38a5.572,5.572,0,0,0,3.872,7.63l9.949,2.24a5.54,5.54,0,0,1,2.933,9.09l-6.726,7.67a5.575,5.575,0,0,0,1.347,8.44l8.766,5.21a5.549,5.549,0,0,1,0,9.55l-8.766,5.22a5.564,5.564,0,0,0-1.347,8.43l6.726,7.67a5.57,5.57,0,0,1-2.933,9.09l-9.949,2.24a5.56,5.56,0,0,0-3.872,7.63l3.993,9.38a5.572,5.572,0,0,1-5.625,7.74l-10.153-.93A5.532,5.532,0,0,0,305,1455.1l.938,10.15a5.591,5.591,0,0,1-7.746,5.63l-9.379-4a5.57,5.57,0,0,0-7.621,3.88l-2.243,9.95a5.543,5.543,0,0,1-9.093,2.93l-7.664-6.73a5.582,5.582,0,0,0-8.442,1.35l-5.219,8.77a5.539,5.539,0,0,1-9.539,0l-5.222-8.77a5.577,5.577,0,0,0-8.438-1.35l-7.664,6.81a5.573,5.573,0,0,1-9.094-2.93l-2.242-9.95a5.561,5.561,0,0,0-7.625-3.88l-9.379,4a5.574,5.574,0,0,1-7.746-5.62l.938-10.16a5.529,5.529,0,0,0-6.036-6.03l-10.191.9a5.594,5.594,0,0,1-5.625-7.75l3.992-9.38a5.558,5.558,0,0,0-3.871-7.62l-9.949-2.25a5.539,5.539,0,0,1-2.934-9.09l6.727-7.66a5.574,5.574,0,0,0-1.348-8.44l-8.722-5.22a5.541,5.541,0,0,1,0-9.54l8.765-5.22a5.57,5.57,0,0,0,1.344-8.44l-6.766-7.67a5.571,5.571,0,0,1,2.934-9.09l9.949-2.24a5.556,5.556,0,0,0,3.871-7.63l-3.992-9.37a5.576,5.576,0,0,1,5.625-7.75l10.152.94a5.54,5.54,0,0,0,6.036-6.04l-.9-10.19a5.592,5.592,0,0,1,7.746-5.63l9.379,4a5.562,5.562,0,0,0,7.625-3.88l2.242-9.94a5.546,5.546,0,0,1,9.094-2.94l7.664,6.73a5.571,5.571,0,0,0,8.438-1.35l5.222-8.76A5.555,5.555,0,0,1,248.527,1288.67Zm0,0" fill="#ffb703"/>
    </clipPath>
    <clipPath id="clip-path-6">
      <path id="Path_14165" data-name="Path 14165" d="M79.574,272h36.512v41.351H79.574Zm0,0" transform="translate(-79.574 -272)" fill="#219ebc"/>
    </clipPath>
    <clipPath id="clip-path-7">
      <path id="Path_14167" data-name="Path 14167" d="M96,279h45.11v34.507H96Zm0,0" transform="translate(-96 -279)"/>
    </clipPath>
    <clipPath id="clip-path-8">
      <path id="Path_14170" data-name="Path 14170" d="M114,214.172h90.22V322.864H114Zm0,0" transform="translate(-114 -214.172)" fill="#cdf7f6"/>
    </clipPath>
    <clipPath id="clip-path-9">
      <path id="Path_14177" data-name="Path 14177" d="M115,214.172h88.34V320.985H115Zm0,0" transform="translate(-115 -214.172)" fill="#cdf7f6"/>
    </clipPath>
    <clipPath id="clip-path-10">
      <path id="Path_14185" data-name="Path 14185" d="M100.02,249.38,339.548,93.734,456.09,273.087,216.554,428.733Zm0,0" transform="translate(-100.02 -93.734)" fill="#cdf7f6"/>
    </clipPath>
    <clipPath id="clip-path-11">
      <path id="Path_14184" data-name="Path 14184" d="M339.233,93.941,99.7,249.579,216.244,428.933l239.53-155.646Zm0,0" transform="translate(-99.703 -93.941)" fill="#cdf7f6"/>
    </clipPath>
  </defs>
  <g id="Group_17136" data-name="Group 17136" transform="translate(-171.178 -376.628)">
    <g id="Group_12722" data-name="Group 12722" transform="translate(432.078 -433.141)" clip-path="url(#clip-path)">
      <g id="Group_12721" data-name="Group 12721" clip-path="url(#clip-path-2)">
        <g id="Group_12720" data-name="Group 12720" clip-path="url(#clip-path-3)">
          <path id="Path_12032" data-name="Path 12032" d="M8.492,904l191.2-57.906,57.906,191.2-191.2,57.9Zm0,0" fill="#8ecae6"/>
        </g>
      </g>
    </g>
    <path id="Path_11845" data-name="Path 11845" d="M169.224,0A169.224,169.224,0,1,1,0,169.224,169.224,169.224,0,0,1,169.224,0Z" transform="translate(171.178 393.628)" fill="#cdf7f6"/>
    <g id="Group_12725" data-name="Group 12725" transform="translate(432.078 -433.141)">
      <g id="Group_12724" data-name="Group 12724" transform="translate(96.97 970.664)">
        <g id="Group_12723" data-name="Group 12723">
          <path id="Path_12036" data-name="Path 12036" d="M7.359-1.937a5.583,5.583,0,0,1-5.375-.8q-2.2-1.746-3.563-6.25l-3.8-12.547q-1.219-4.031-.047-6.641a6.96,6.96,0,0,1,4.7-3.7,7.892,7.892,0,0,1,4.828-.2,6.229,6.229,0,0,1,3.234,2.7,22.223,22.223,0,0,1,2.344,5.469l-5.7,1.719-.8-2.594a3.791,3.791,0,0,0-.781-1.547,1.078,1.078,0,0,0-1.2-.266q-1.688.5-1.031,2.672L4.453-9.828a4.66,4.66,0,0,0,.938,1.906,1.271,1.271,0,0,0,1.391.328,1.274,1.274,0,0,0,.984-1.047,4.875,4.875,0,0,0-.25-2.109L6.25-14.922l-1.562.469-1.516-5L10.3-21.609,15.422-4.672l-2.344.7L11.359-6.094A5.4,5.4,0,0,1,7.359-1.937Zm0,0" fill="#191919"/>
        </g>
      </g>
    </g>
    <g id="Group_12728" data-name="Group 12728" transform="translate(432.078 -433.141)">
      <g id="Group_12727" data-name="Group 12727" transform="translate(113.405 965.687)">
        <g id="Group_12726" data-name="Group 12726">
          <path id="Path_12037" data-name="Path 12037" d="M8.313-2.234A6.941,6.941,0,0,1,2.3-2.75,9.5,9.5,0,0,1-1.359-8.234L-5.547-22.094q-1.137-3.779.109-6.25A7.373,7.373,0,0,1-.672-31.891a7.416,7.416,0,0,1,5.938.3q2.42,1.359,3.563,5.141l4.187,13.859a9.317,9.317,0,0,1,0,6.609A6.955,6.955,0,0,1,8.313-2.234ZM6.688-7.578a1.066,1.066,0,0,0,.844-.984,5.457,5.457,0,0,0-.281-1.984L2.938-24.781A4.268,4.268,0,0,0,2.2-26.234a1.059,1.059,0,0,0-1.219-.3c-.98.293-1.242,1.18-.8,2.656l4.3,14.188a4.927,4.927,0,0,0,.891,1.813A1.166,1.166,0,0,0,6.688-7.578Zm0,0" fill="#191919"/>
        </g>
      </g>
    </g>
    <g id="Group_12731" data-name="Group 12731" transform="translate(432.078 -433.141)">
      <g id="Group_12730" data-name="Group 12730" transform="translate(129.875 960.699)">
        <g id="Group_12729" data-name="Group 12729">
          <path id="Path_12038" data-name="Path 12038" d="M8.313-2.234A6.941,6.941,0,0,1,2.3-2.75,9.5,9.5,0,0,1-1.359-8.234L-5.547-22.094q-1.137-3.779.109-6.25A7.373,7.373,0,0,1-.672-31.891a7.416,7.416,0,0,1,5.938.3q2.42,1.359,3.563,5.141l4.187,13.859a9.317,9.317,0,0,1,0,6.609A6.955,6.955,0,0,1,8.313-2.234ZM6.688-7.578a1.066,1.066,0,0,0,.844-.984,5.457,5.457,0,0,0-.281-1.984L2.938-24.781A4.268,4.268,0,0,0,2.2-26.234a1.059,1.059,0,0,0-1.219-.3c-.98.293-1.242,1.18-.8,2.656l4.3,14.188a4.927,4.927,0,0,0,.891,1.813A1.166,1.166,0,0,0,6.688-7.578Zm0,0" fill="#191919"/>
        </g>
      </g>
    </g>
    <g id="Group_12734" data-name="Group 12734" transform="translate(432.078 -433.141)">
      <g id="Group_12733" data-name="Group 12733" transform="translate(146.344 955.711)">
        <g id="Group_12732" data-name="Group 12732">
          <path id="Path_12039" data-name="Path 12039" d="M-7.531-29.484.5-31.922a6.244,6.244,0,0,1,5.2.328,7.817,7.817,0,0,1,3.125,4.609l4.2,13.609q1.342,4.283.469,6.922T9.125-2.766L1.281-.391ZM6.609-7.609A1.473,1.473,0,0,0,7.734-9.672L3.188-24.687a5.228,5.228,0,0,0-.609-1.406,1.022,1.022,0,0,0-.766-.5,3.277,3.277,0,0,0-1.3.2l-.656.188L5.578-7.312Zm0,0" fill="#191919"/>
        </g>
      </g>
    </g>
    <g id="Group_12737" data-name="Group 12737" transform="translate(432.078 -433.141)">
      <g id="Group_12736" data-name="Group 12736" transform="translate(112.302 1017.557)">
        <g id="Group_12735" data-name="Group 12735">
          <path id="Path_12040" data-name="Path 12040" d="M7.844-2.078a8.853,8.853,0,0,1-3.875.313,6.225,6.225,0,0,1-3.234-1.5A7.206,7.206,0,0,1-1.312-6.625l-2.2-7.3,5.734-1.734L4.328-8.7a2.188,2.188,0,0,0,.688,1.141,1.157,1.157,0,0,0,1.125.156,1.147,1.147,0,0,0,.828-.719,2.05,2.05,0,0,0-.031-1.312L.156-31.812l5.875-1.781,6.609,21.813a8.762,8.762,0,0,1,.3,4.25,6.71,6.71,0,0,1-1.7,3.406A7.487,7.487,0,0,1,7.844-2.078Zm0,0" fill="#191919"/>
        </g>
      </g>
    </g>
    <g id="Group_12740" data-name="Group 12740" transform="translate(432.078 -433.141)">
      <g id="Group_12739" data-name="Group 12739" transform="translate(128.094 1012.775)">
        <g id="Group_12738" data-name="Group 12738">
          <path id="Path_12041" data-name="Path 12041" d="M8.313-2.234A6.941,6.941,0,0,1,2.3-2.75,9.5,9.5,0,0,1-1.359-8.234L-5.547-22.094q-1.137-3.779.109-6.25A7.373,7.373,0,0,1-.672-31.891a7.416,7.416,0,0,1,5.938.3q2.42,1.359,3.563,5.141l4.187,13.859a9.317,9.317,0,0,1,0,6.609A6.955,6.955,0,0,1,8.313-2.234ZM6.688-7.578a1.066,1.066,0,0,0,.844-.984,5.457,5.457,0,0,0-.281-1.984L2.938-24.781A4.268,4.268,0,0,0,2.2-26.234a1.059,1.059,0,0,0-1.219-.3c-.98.293-1.242,1.18-.8,2.656l4.3,14.188a4.927,4.927,0,0,0,.891,1.813A1.166,1.166,0,0,0,6.688-7.578Zm0,0" fill="#191919"/>
        </g>
      </g>
    </g>
    <g id="Group_12743" data-name="Group 12743" transform="translate(432.078 -433.141)">
      <g id="Group_12742" data-name="Group 12742" transform="translate(144.563 1007.787)">
        <g id="Group_12741" data-name="Group 12741">
          <path id="Path_12042" data-name="Path 12042" d="M-7.531-29.484.375-31.875q3.17-.967,5.078.156t3,4.625l.391,1.3q1.248,4.16-1.484,5.891a3.814,3.814,0,0,1,3.234,1.422,12.256,12.256,0,0,1,2.125,4.344q1.406,4.641.75,7.453T9.188-2.781L1.281-.391Zm10.2,8.844A1.06,1.06,0,0,0,3.5-21.5a3.917,3.917,0,0,0-.187-1.656l-.891-2.906c-.281-.945-.844-1.3-1.688-1.047l-1.2.375,1.953,6.453ZM6-7.391q2.279-.686,1.625-2.859L6.516-13.891a4.261,4.261,0,0,0-.984-1.875,1.517,1.517,0,0,0-1.578-.266L2.875-15.7,5.422-7.25Zm0,0" fill="#191919"/>
        </g>
      </g>
    </g>
    <g id="Group_12746" data-name="Group 12746" transform="translate(432.078 -433.141)">
      <g id="Group_12745" data-name="Group 12745" transform="translate(160.795 1002.871)">
        <g id="Group_12744" data-name="Group 12744">
          <path id="Path_12043" data-name="Path 12043" d="M-.344-8.547-7.906-29.375l5.938-1.8L3.25-9.641ZM.906-.281l-1.5-4.953,5.938-1.8,1.5,4.953Zm0,0" fill="#191919"/>
        </g>
      </g>
    </g>
    <g id="Group_12749" data-name="Group 12749" transform="translate(432.078 -433.141)">
      <g id="Group_12748" data-name="Group 12748" transform="translate(168.555 1000.521)">
        <g id="Group_12747" data-name="Group 12747">
          <path id="Path_12044" data-name="Path 12044" d="M-.344-8.547-7.906-29.375l5.938-1.8L3.25-9.641ZM.906-.281l-1.5-4.953,5.938-1.8,1.5,4.953Zm0,0" fill="#191919"/>
        </g>
      </g>
    </g>
    <g id="Group_12963" data-name="Group 12963" transform="translate(174.282 -627.236)" clip-path="url(#clip-path-4)">
      <g id="Group_12962" data-name="Group 12962" clip-path="url(#clip-path-5)">
        <path id="Path_12164" data-name="Path 12164" d="M141.824,1285.94H345.688V1489.8H141.824Zm0,0" fill="#ffb703"/>
      </g>
    </g>
    <g id="Group_12966" data-name="Group 12966" transform="translate(174.282 -627.236)">
      <g id="Group_12965" data-name="Group 12965" transform="translate(191.963 1412.836)">
        <g id="Group_12964" data-name="Group 12964">
          <path id="Path_12167" data-name="Path 12167" d="M1.328-.266l-6-30.172,6.016-1.187L3.484-20.844l2.844-.578L4.188-32.2,10.2-33.391l6,30.172L10.188-2.031l-2.719-13.7-2.844.578,2.719,13.7Zm0,0" fill="#191919"/>
        </g>
      </g>
    </g>
    <g id="Group_12969" data-name="Group 12969" transform="translate(174.282 -627.236)">
      <g id="Group_12968" data-name="Group 12968" transform="translate(209.493 1409.352)">
        <g id="Group_12967" data-name="Group 12967">
          <path id="Path_12168" data-name="Path 12168" d="M8.594-1.422A6.952,6.952,0,0,1,2.609-2.547,9.561,9.561,0,0,1-.531-8.437L-3.391-22.812q-.779-3.891.734-6.25a7.489,7.489,0,0,1,5.141-3.094,7.481,7.481,0,0,1,5.937.891q2.3,1.611,3.078,5.5l2.859,14.375A9.643,9.643,0,0,1,13.7-4.719,7.014,7.014,0,0,1,8.594-1.422ZM7.484-6.969a1.079,1.079,0,0,0,.953-.906,5.713,5.713,0,0,0-.109-2.031L5.391-24.672A4.075,4.075,0,0,0,4.813-26.2a1.093,1.093,0,0,0-1.2-.406c-1,.2-1.352,1.059-1.047,2.578L5.484-9.312a5.052,5.052,0,0,0,.7,1.906A1.184,1.184,0,0,0,7.484-6.969Zm0,0" fill="#191919"/>
        </g>
      </g>
    </g>
    <g id="Group_12972" data-name="Group 12972" transform="translate(174.282 -627.236)">
      <g id="Group_12971" data-name="Group 12971" transform="translate(226.567 1405.958)">
        <g id="Group_12970" data-name="Group 12970">
          <path id="Path_12169" data-name="Path 12169" d="M8.594-1.422A6.952,6.952,0,0,1,2.609-2.547,9.561,9.561,0,0,1-.531-8.437L-3.391-22.812q-.779-3.891.734-6.25a7.489,7.489,0,0,1,5.141-3.094,7.481,7.481,0,0,1,5.937.891q2.3,1.611,3.078,5.5l2.859,14.375A9.643,9.643,0,0,1,13.7-4.719,7.014,7.014,0,0,1,8.594-1.422ZM7.484-6.969a1.079,1.079,0,0,0,.953-.906,5.713,5.713,0,0,0-.109-2.031L5.391-24.672A4.075,4.075,0,0,0,4.813-26.2a1.093,1.093,0,0,0-1.2-.406c-1,.2-1.352,1.059-1.047,2.578L5.484-9.312a5.052,5.052,0,0,0,.7,1.906A1.184,1.184,0,0,0,7.484-6.969Zm0,0" fill="#191919"/>
        </g>
      </g>
    </g>
    <g id="Group_12975" data-name="Group 12975" transform="translate(174.282 -627.236)">
      <g id="Group_12974" data-name="Group 12974" transform="translate(243.64 1402.565)">
        <g id="Group_12973" data-name="Group 12973">
          <path id="Path_12170" data-name="Path 12170" d="M-4.672-30.437l9.281-1.844a5.356,5.356,0,0,1,3.625.328,5.024,5.024,0,0,1,2.2,2.484,21.078,21.078,0,0,1,1.328,4.516,10.053,10.053,0,0,1,.141,4.156,3.793,3.793,0,0,1-1.922,2.453,2.845,2.845,0,0,1,2.234.984,6.1,6.1,0,0,1,1.219,2.813L15.625-3.109,9.734-1.937l-2.344-11.8c-.168-.852-.437-1.359-.812-1.516a3.442,3.442,0,0,0-1.859,0L7.453-1.484,1.328-.266Zm9.813,9.672q1.266-.264.719-3.016a12.185,12.185,0,0,0-.453-1.766,1.257,1.257,0,0,0-.562-.734A1.266,1.266,0,0,0,4-26.344l-1.406.281L3.7-20.484Zm0,0" fill="#191919"/>
        </g>
      </g>
    </g>
    <g id="Group_12978" data-name="Group 12978" transform="translate(174.282 -627.236)">
      <g id="Group_12977" data-name="Group 12977" transform="translate(260.397 1399.234)">
        <g id="Group_12976" data-name="Group 12976">
          <path id="Path_12171" data-name="Path 12171" d="M.516-.109l-3.063-30.75L7.672-32.891,16.547-3.3,10.813-2.156l-1.391-4.8-3.641.719.609,4.969ZM5.281-11.141l2.75-.547L3.625-26.766l-.281.063Zm0,0" fill="#191919"/>
        </g>
      </g>
    </g>
    <g id="Group_12981" data-name="Group 12981" transform="translate(174.282 -627.236)">
      <g id="Group_12980" data-name="Group 12980" transform="translate(277.436 1395.848)">
        <g id="Group_12979" data-name="Group 12979">
          <path id="Path_12172" data-name="Path 12172" d="M4.984-.984,3-10.937-5.828-30.2.141-31.391l3.719,9.875L3.516-32.062,9.5-33.25,8.7-12.078l1.984,9.953Zm0,0" fill="#191919"/>
        </g>
      </g>
    </g>
    <g id="Group_12984" data-name="Group 12984" transform="translate(174.282 -627.236)">
      <g id="Group_12983" data-name="Group 12983" transform="translate(293.104 1392.733)">
        <g id="Group_12982" data-name="Group 12982">
          <path id="Path_12173" data-name="Path 12173" d="M.516-8.641-5.047-30.359l6.141-1.219L4.25-9.391ZM.953-.187-.062-5.328,6.078-6.547,7.094-1.406Zm0,0" fill="#191919"/>
        </g>
      </g>
    </g>
    <g id="Group_16905" data-name="Group 16905" transform="translate(591.095 763.864)" clip-path="url(#clip-path-6)">
      <path id="Path_14164" data-name="Path 14164" d="M81.315,290.337l6.733,8.12L97.3,309.581a6,6,0,0,0,8.392.793l8.634-7.152-14.457-21.2-6.432-9.413-11.329,9.355A5.91,5.91,0,0,0,81.315,290.337Zm0,0" transform="translate(-79.251 -271.461)" fill="#219ebc"/>
    </g>
    <g id="Group_16906" data-name="Group 16906" transform="translate(621.968 777.021)" clip-path="url(#clip-path-7)">
      <path id="Path_14166" data-name="Path 14166" d="M123.075,323.462l-26.4-31.834,14.09-11.667,26.461,31.829a9.171,9.171,0,0,1-14.148,11.672Zm0,0" transform="translate(-95.409 -278.155)" fill="#332c3a"/>
    </g>
    <path id="Path_14168" data-name="Path 14168" d="M91.436,270.73l-4.347,3.539,20.947,30.609,6.982-5.74Zm0,0" transform="translate(518.131 490.747)" fill="#332c3a"/>
    <g id="Group_16907" data-name="Group 16907" transform="translate(655.801 655.172)" clip-path="url(#clip-path-8)">
      <path id="Path_14169" data-name="Path 14169" d="M116.269,214.82l-1.834,4.832c34.97,54.617,71.6,90.051,84.038,101.356l5.146-.859Zm0,0" transform="translate(-113.618 -213.602)" fill="#cdf7f6"/>
    </g>
    <path id="Path_14171" data-name="Path 14171" d="M110.868,271.091,95.434,312.022l19.845,23.95,11.33-1.953,88.575-15.272c-3.37-3.12-8.642-8.009-15.133-14.668A539.528,539.528,0,0,1,131.2,217.391l-19.238,50.946-1.1,2.754" transform="translate(525.47 443.831)" fill="#219ebc"/>
    <path id="Path_14172" data-name="Path 14172" d="M86.9,277.939l17.151,20.645,12.5,15.029a5.94,5.94,0,0,0,8.332.8l8.761-7.21a5.9,5.9,0,0,0,.793-8.311l-17.027-20.529L104.8,263.15a5.938,5.938,0,0,0-8.333-.791l-8.759,7.21A5.982,5.982,0,0,0,86.9,277.939Zm0,0" transform="translate(516.782 482.196)" fill="#8ecae6"/>
    <path id="Path_14173" data-name="Path 14173" d="M98.976,286.158l-1.439-1.74-7.6,6.27,1.439,1.74Zm0,0" transform="translate(520.636 502.787)" fill="#332c3a"/>
    <path id="Path_14174" data-name="Path 14174" d="M96.284,282.884l-1.446-1.739-7.6,6.268,1.446,1.74Zm0,0" transform="translate(518.262 499.908)" fill="#332c3a"/>
    <path id="Path_14175" data-name="Path 14175" d="M93.542,279.615,92.1,277.867l-7.6,6.27,1.446,1.741Zm0,0" transform="translate(515.85 497.025)" fill="#332c3a"/>
    <g id="Group_16908" data-name="Group 16908" transform="translate(657.68 655.172)" clip-path="url(#clip-path-9)">
      <path id="Path_14176" data-name="Path 14176" d="M115.452,214.844c-1.351,1.1,12.864,20.529,32.893,45.155,2.569,3.171,5.265,6.475,8.026,9.772s5.447,6.535,8.142,9.714c9.31,11,17.826,20.653,24.442,27.8,7.9,8.554,13.17,13.5,13.905,12.892,1.41-1.16-13.539-21.5-34.361-46.982-2.145-2.628-4.287-5.257-6.556-7.943q-3.3-4.032-6.616-7.879C134.071,232.136,116.8,213.685,115.452,214.844Zm0,0" transform="translate(-114.681 -213.626)" fill="#cdf7f6"/>
    </g>
    <path id="Path_14178" data-name="Path 14178" d="M134.137,239.088l-1.227,1.043c2.569,3.171,5.265,6.475,8.026,9.772s5.447,6.535,8.142,9.714l1.225-1.036a7.52,7.52,0,0,0,.985-10.573l-6.558-7.877a7.509,7.509,0,0,0-10.593-1.043Zm0,0" transform="translate(558.434 461.414)" fill="#219ebc"/>
    <g id="Group_17100" data-name="Group 17100" transform="translate(-1053.091 -662.383)">
      <line id="Line_46" data-name="Line 46" y2="34" transform="translate(1521.5 1231.831)" fill="none" stroke="#fb8500" stroke-width="5"/>
      <line id="Line_45" data-name="Line 45" y1="34" transform="translate(1538.5 1248.831) rotate(90)" fill="none" stroke="#fb8500" stroke-width="5"/>
    </g>
    <g id="Group_17102" data-name="Group 17102" transform="translate(-956.922 -538.919)">
      <line id="Line_46-2" data-name="Line 46" y2="34" transform="translate(1521.5 1231.831)" fill="none" stroke="#fb8500" stroke-width="5"/>
      <line id="Line_45-2" data-name="Line 45" y1="34" transform="translate(1538.5 1248.831) rotate(90)" fill="none" stroke="#fb8500" stroke-width="5"/>
    </g>
    <g id="Group_17104" data-name="Group 17104" transform="translate(-1333.322 -509.723)">
      <line id="Line_46-3" data-name="Line 46" y2="34" transform="translate(1521.5 1231.831)" fill="none" stroke="#fb8500" stroke-width="5"/>
      <line id="Line_45-3" data-name="Line 45" y1="34" transform="translate(1538.5 1248.831) rotate(90)" fill="none" stroke="#fb8500" stroke-width="5"/>
    </g>
    <g id="Group_17103" data-name="Group 17103" transform="translate(-718.922 -521.919)">
      <line id="Line_46-4" data-name="Line 46" y2="34" transform="translate(1521.5 1231.831)" fill="none" stroke="#fb8500" stroke-width="5"/>
      <line id="Line_45-4" data-name="Line 45" y1="34" transform="translate(1538.5 1248.831) rotate(90)" fill="none" stroke="#fb8500" stroke-width="5"/>
    </g>
    <g id="Group_17101" data-name="Group 17101" transform="translate(-1086.718 -855.203)">
      <line id="Line_46-5" data-name="Line 46" y2="34" transform="translate(1521.5 1231.831)" fill="none" stroke="#fb8500" stroke-width="5"/>
      <line id="Line_45-5" data-name="Line 45" y1="34" transform="translate(1538.5 1248.831) rotate(90)" fill="none" stroke="#fb8500" stroke-width="5"/>
    </g>
  </g>
</svg>
