<svg version="1.1" id="Layer_1" xmlns="http://www.w3.org/2000/svg" x="0" y="0" viewBox="0 0 67.3 12.3" style="enable-background:new 0 0 67.3 12.3" xml:space="preserve"><style>.st3{fill:none;stroke:#ed1c24;stroke-width:.25;stroke-miterlimit:10}</style><text transform="translate(13.852 9.899)" style="font-size:12px;font-family:'FONTSPRINGDEMO-SineteRegular'">EarnCash</text><path class="st3" d="M11.6 8.1V5.7c-1.5-.3-3.1.3-4.7.2-.4 0-.9-.1-1.4-.2-1.1-.2-2.1-.1-3.2 0v4.7c1.8-.5 3.7-.6 5.5-.1"/><path d="M.2 7.3C.1 6.7.1 6 .3 5.4c.1-.5.4-1 .6-1.5.1-.4.3-.8.2-1.2" style="fill:none;stroke:#ed1c24;stroke-width:.2544;stroke-miterlimit:10"/><path class="st3" d="M.1 7.2c.7-.1 1.8.2 2.2.1M4.3 3.1c.6.1 5.6 1.5 6.2 1.4M1.1 2.8c1.1-.1 2.2.1 3.3.3"/><path d="M10.4 4.6v1" style="fill:none;stroke:#ed1c24;stroke-width:.243;stroke-miterlimit:10"/><path class="st3" d="M2.5 2.8c.1-.3.7-2.4.8-2.7"/><path class="st3" d="M11.2 5.6c.1-.4.2-.8.4-1.2.1-.4.5-.8.4-1.2-2-.4-4-1-5.6-2.2C6.2.9 6 .7 5.8.6 5.1.2 4.1.1 3.2.1"/></svg>