<svg height="48" viewBox="0 0 199 48" width="199" xmlns="http://www.w3.org/2000/svg">
    <g fill="none">
        <g fill="#343545" transform="translate(60 16)">
            <path d="m.165733 15.7210217h2.5510204v-6.6693344h5.4688542v-2.2008803h-5.4688542v-3.7765106h6.552621v-2.284247h-9.1036414z"/>
            <path d="m20.1487262 9.6686008c.0651403 1.0706433-.2281861 2.1324849-.8336668 3.0178738-.5822647.687737-1.4613512 1.0511756-2.3592771.9753901-.8792704.0712857-1.7361327-.3008552-2.284247-.9920634-.5667862-.8940413-.8353253-1.9448463-.7669735-3.0012005v-8.8785514h-2.5176737v9.1703348c-.1021223 1.6152467.4303082 3.2065559 1.4839269 4.4351073 1.0939509 1.0725172 2.5886569 1.6353013 4.118314 1.5506203.7860441.0122896 1.5671434-.1263838 2.3009204-.4084968.6807969-.26759 1.2952409-.680064 1.8007202-1.2088168.5120476-.5558216.9037227-1.2114518 1.1504602-1.9257703.2679372-.8062815.4003403-1.6514078.3918234-2.5010004v-9.1119781h-2.5010004z"/>
            <path d="m33.812525 11.7861144-5.8356676-10.996065h-3.0678938v14.9309723h2.4509804v-10.9293717l5.8773509 10.9293717h3.0262105v-14.9309723h-2.4509804z"/>
            <path d="m48.751834 2.882553c-.638722-.721438-1.430533-1.2910866-2.317594-1.6673336-1.059592-.4233003-2.193976-.6274893-3.334667-.6002401-.833667 0-1.5006 0-2.12585.0583567s-1.2505004.0833667-1.9007605.15006h-.2667734v14.8559424h.2667734c.5557779.0666933 1.1393445.1167134 1.7507005.15006.583567 0 1.27551.0583567 2.05082.0583567 1.168412.0255923 2.33026-.1812734 3.418034-.6085768.910631-.3683073 1.725849-.9383898 2.384287-1.6673336.628132-.7108624 1.099644-1.5459496 1.383887-2.4509804.579965-1.9019936.579965-3.9336739 0-5.8356676-.263398-.8956689-.708997-1.7272632-1.308857-2.4426437zm-5.777311 10.6959451c-.333467 0-.658597 0-.967053 0-.308457 0-.416834 0-.608577-.05002v-10.5458851l.616913-.0416833h1.067094c.750801-.0145838 1.495884.1332952 2.184207.4335067.586437.2671723 1.10294.6666779 1.508937 1.1671336.396834.4952343.696642 1.0609108.883687 1.6673336.194206.6605695.292472 1.345621.291783 2.0341469.007454.7410021-.090796 1.4792811-.291783 2.1925437-.17571.6127586-.479783 1.1811196-.892024 1.6673336-.41788.478073-.943739.8496043-1.533947 1.0837669-.720397.276413-1.487833.4095107-2.259237.3918234z"/>
        </g>
        <g fill="#7ac8cb">
            <path d="m110.727624 19.1159797h4.401761v12.605042h2.542684v-12.605042h4.401761v-2.3259303h-11.346206z"/>
            <path d="m132.519675 22.9091637h-6.452581v-6.1191143h-2.551021v14.9309723h2.551021v-6.527611h6.452581v6.527611h2.55102v-14.9309723h-2.55102z"/>
            <path d="m142.215219 16.7900494-6.060757 14.9309723h2.559357l1.558957-3.8848872h6.219154l1.5006 3.8848872h2.726091l-5.960718-14.9309723zm3.409698 8.8035214h-4.501801l2.267574-5.7439643z"/>
            <path d="m148.534414 19.1159797h4.40176v12.605042h2.542684v-12.605042h4.401761v-2.3259303h-11.346205z"/>
        </g>
        <g fill="#343545" transform="translate(12.505002 7.503001)">
            <path d="m149.443111 24.2180205h2.55102v-6.6693344h5.468854v-2.2008803h-5.468854v-3.7765106h6.552621v-2.28424705h-9.103641z"/>
            <path d="m162.948513 9.28704815h-2.551021v14.93097235h9.120315v-2.3426037h-6.569294z"/>
            <path d="m170.851674 9.28704815h2.55102v14.93097235h-2.55102z"/>
            <path d="m185.44918 11.9130986c-.263429-.5840115-.663787-1.0958975-1.167134-1.4922636-.555994-.43034431-1.186071-.75527201-1.859077-.95871682-.811485-.24021808-1.654817-.35547343-2.501-.34180339-.733627 0-1.442244 0-2.109177.05835668-.666934.05835667-1.30052.08336668-1.875751.15006002h-.266773v14.88928901h2.551021v-5.3771508h1.292183c.844662.0073261 1.686286-.1020851 2.501-.3251301.7233-.1980149 1.402311-.531862 2.000801-.9837268.554716-.4280201 1.002717-.978747 1.308857-1.6089769.324867-.675704.487577-1.4178932.47519-2.1675337.016987-.6321561-.102436-1.2605508-.35014-1.8424036zm-7.194545-.4918634h.633587 1.02541c.911503-.0619285 1.81697.1879569 2.567694.7086167.561177.4564807.870883 1.1533171.833667 1.8757503.049327.7508277-.259916 1.4806422-.833667 1.9674537-.771877.5385913-1.703312.8000985-2.642724.7419634-.391823 0-.733627 0-1.033747 0l-.508536-.0416833z"/>
            <path d="m2.25090036 7.88648793 9.07029474-5.09370415h.0583567l9.2203548 5.11037748c.2287724.12736994.4991483.15741171.7503001.08336668.249664-.07027389.4602026-.23870483.5835668-.4668534.1301725-.22760816.1632254-.49804041.0917034-.75030012-.0735997-.2479405-.2411163-.45733625-.4668535-.58356676l-9.7288915-5.35214086c-.1325625-.0667633-.2771004-.10644038-.4251701-.11671335h-.1417233c-.1485958.00707737-.2937868.04693372-.4251701.11671335l-10.58756836 5.94404428v15.13105242c0 .5432973.44042952.9837268.98372682.9837268.54329731 0 .98372681-.4404295.98372683-.9837268v-4.343404h6.95278111c.54329732 0 .9837268-.4404295.9837268-.9837268 0-.5432974-.44042948-.9837269-.9837268-.9837269h-6.97779112v-7.6780712z"/>
            <path d="m1.31719354 26.8774176 9.72889156 5.3938242c.1295858.0742025.2758619.1143568.4251701.1167134h.1417233c.1574101-.001022.3121015-.0411272.4501801-.1167134l10.5792317-5.9523809v-15.1310524c.034312-.3715384-.1445267-.7305091-.4617794-.9268983-.3172528-.1963893-.7183054-.1963893-1.0355582 0-.3172527.1963892-.4960914.5553599-.4617794.9268983v4.4100973h-7.0528211c-.5432973 0-.9837268.4404295-.9837268.9837269 0 .5432973.4404295.9837268.9837268.9837268h7.0528211v7.6030412h-.0666933l-9.0702948 5.1353875h-.0583567l-9.2203548-5.1520608c-.14604387-.0792699-.30904499-.1221649-.47519008-.1250501-.08847423-.0126548-.17829914-.0126548-.26677338 0-.38462157.1079174-.66579071.4377132-.71151071.8345628s.15308869.7819424.50309401.9744942z"/>
        </g>
        <path d="m46.0600907 25.5018674c-.2806344-.0307364-.5621011.0501104-.7836468.22509-.2235158.175042-.3652057.4343044-.3918234.7169535-1.2048272 10.6599668-10.222209 18.7155848-20.9500467 18.7155848-10.7278376 0-19.74521942-8.055618-20.95004666-18.7155848-.0341926-.2822177-.1779043-.5397012-.40016006-.7169535-.18679154-.1500958-.41897467-.2323885-.65859677-.2334267h-.13338669c-.28430414.0294066-.54520738.1707788-.72509038.3928952s-.26394686.5067036-.23362644.7909117c1.34003087 11.73118 11.2684305 20.5900403 23.075897 20.5900403 11.8074666 0 21.7358662-8.8588603 23.0758971-20.5900403.0302679-.2819345-.0538196-.5642283-.2334268-.7836468-.169791-.2169328-.4185721-.3578088-.6919434-.3918234z" fill="#7ac8cb"/>
        <path d="m1.78404695 22.6590636c.28911766.0349869.57988089-.0506614.80386596-.2367898.22398506-.1861285.36141201-.4563001.3799409-.746937 1.18749065-10.6762882 10.21208939-18.75276057 20.95421499-18.75276057 10.7421257 0 19.7667244 8.07647237 20.954215 18.75276057.0416977.3797466.2828203.7084015.6325393.8621636.3497191.153762.7549039.1092712 1.0629252-.1167134.3080214-.2259845.4720836-.5991303.4303859-.9788769-1.3140027-11.76277578-11.2632212-20.6560002-23.099159-20.64746362-11.8359379.0085612-21.77229917 8.91614862-23.0693084 20.68081032-.0633307.5890098.36160639 1.1183174.95038015 1.1838068z" fill="#7ac8cb"/>
    </g>
</svg>