<svg height="19.486" viewBox="0 0 26.288 19.486" width="26.288" xmlns="http://www.w3.org/2000/svg"><g fill="#ffae4d"><path d="m59.3 25a6.17 6.17 0 1 1 -2.445 11.833 11.266 11.266 0 0 0 4.545 5.335 1.235 1.235 0 0 1 -1.182 2.169c-4.108-2.237-7.093-7.775-7.093-13.167a6.177 6.177 0 0 1 6.175-6.17z" transform="translate(-53.125 -25)"/><path d="m20.234 25a6.17 6.17 0 1 1 -2.445 11.833 11.274 11.274 0 0 0 4.551 5.334 1.235 1.235 0 0 1 -1.182 2.169c-4.109-2.237-7.095-7.775-7.095-13.166a6.177 6.177 0 0 1 6.17-6.17z" transform="translate(-.116 -25)"/></g></svg>